<?xml version="1.0" encoding="UTF-8"?>
<svg width="119px" height="133px" viewBox="0 0 119 133" version="1.1" xmlns="http://www.w3.org/2000/svg" xmlns:xlink="http://www.w3.org/1999/xlink">
    <!-- Generator: Sketch 49.1 (51147) - http://www.bohemiancoding.com/sketch -->
    <title>academia_hex</title>
    <desc>Created with Sketch.</desc>
    <defs></defs>
    <g id="Page-1" stroke="none" stroke-width="1" fill="none" fill-rule="evenodd">
        <g id="academia_hex" transform="translate(1.000000, -1.000000)">
            <path d="M63.4567148,2.88675135 L111.91343,30.8632487 C115.00744,32.6495766 116.91343,35.9508468 116.91343,39.5235027 L116.91343,95.4764973 C116.91343,99.0491532 115.00744,102.350423 111.91343,104.136751 L63.4567148,132.113249 C60.362704,133.899577 56.5507255,133.899577 53.4567148,132.113249 L5,104.136751 C1.90598923,102.350423 5.15143483e-14,99.0491532 4.61852778e-14,95.4764973 L3.55271368e-15,39.5235027 C0,35.9508468 1.90598923,32.6495766 5,30.8632487 L53.4567148,2.88675135 C56.5507255,1.1004234 60.362704,1.1004234 63.4567148,2.88675135 Z" id="Polygon" stroke="#9D9D9D" fill="#FFFFFF"></path>
            <path d="M58,37 L28.9997353,49.4117466 L28.9997353,57.0593056 L31.0001544,57.0593056 L31.0001544,87.0171396 L31.0001544,89.0147383 L31.0001544,92.0101119 L28.9997353,92.0101119 L28.9997353,97.0030842 L27,97.0030842 L27,99 L89,99 L89,97.0030842 L86.9995808,97.0030842 L86.9995808,92.0101119 L84.9998456,92.0101119 L84.9998456,89.0147383 L84.9998456,87.0171396 L84.9998456,57.0593056 L86.9995808,57.0593056 L86.9995808,49.4117466 L58,37 Z M31.0001544,50.7277714 L58,39.1731142 L84.9998456,50.7277714 L84.9998456,55.0623898 L76.9995367,55.0623898 L70.999647,55.0623898 L63.0000221,55.0623898 L52.9999779,55.0623898 L45.000353,55.0623898 L39.0004633,55.0623898 L31.0001544,55.0623898 L31.0001544,50.7277714 Z M78.999272,87.0164566 L82.9994264,87.0164566 L82.9994264,57.0593056 L78.999272,57.0593056 L78.999272,87.0164566 Z M70.999647,87.0164566 L76.9995367,87.0164566 L76.9995367,57.0593056 L70.999647,57.0593056 L70.999647,87.0164566 Z M64.9997573,87.0164566 L68.9999118,87.0164566 L68.9999118,57.0593056 L64.9997573,57.0593056 L64.9997573,87.0164566 Z M52.9999779,87.0164566 L62.9993382,87.0164566 L62.9993382,57.0593056 L52.9999779,57.0593056 L52.9999779,87.0164566 Z M47.0000882,87.0164566 L50.9995588,87.0164566 L50.9995588,57.0593056 L47.0000882,57.0593056 L47.0000882,87.0164566 Z M39.0004633,87.0164566 L45.000353,87.0164566 L45.000353,57.0593056 L39.0004633,57.0593056 L39.0004633,87.0164566 Z M33.0005736,87.0164566 L37.0000441,87.0164566 L37.0000441,57.0593056 L33.0005736,57.0593056 L33.0005736,87.0164566 Z M69.3439155,89.0147383 L70.999647,89.0147383 L76.9995367,89.0147383 L82.9994264,89.0147383 L82.9994264,92.0101119 L70.2439331,92.0101119 L69.3439155,89.0147383 Z M48.7440434,89.0147383 L52.9999779,89.0147383 L63.0000221,89.0147383 L67.2559566,89.0147383 L69.6557757,97.0030842 L46.3442243,97.0030842 L48.7440434,89.0147383 Z M33.0005736,89.0147383 L39.0004633,89.0147383 L45.000353,89.0147383 L46.6560845,89.0147383 L45.7560669,92.0101119 L33.0005736,92.0101119 L33.0005736,89.0147383 Z M70.8437169,94.0070277 L84.9998456,94.0070277 L84.9998456,97.0030842 L71.7437346,97.0030842 L70.8437169,94.0070277 Z M31.0001544,94.0070277 L45.1562831,94.0070277 L44.2562654,97.0030842 L31.0001544,97.0030842 L31.0001544,94.0070277 Z" id="Fill-1" stroke="#02306A" fill="#02306A"></path>
            <polygon id="Fill-2" fill="#02306A" points="49 95 66 95 66 94 49 94"></polygon>
            <polygon id="Fill-3" fill="#02306A" points="49 92 66 92 66 91 49 91"></polygon>
            <polygon id="Fill-4" fill="#333333" points="33 52 34 52 34 51 33 51"></polygon>
            <polygon id="Fill-5" fill="#333333" points="37 52 38 52 38 51 37 51"></polygon>
            <polygon id="Fill-6" fill="#333333" points="41 52 42 52 42 51 41 51"></polygon>
            <polygon id="Fill-7" fill="#333333" points="44 52 45 52 45 51 44 51"></polygon>
            <polygon id="Fill-8" fill="#333333" points="49 52 50 52 50 51 49 51"></polygon>
            <polygon id="Fill-9" fill="#333333" points="53 52 54 52 54 51 53 51"></polygon>
            <polygon id="Fill-10" fill="#333333" points="57 52 58 52 58 51 57 51"></polygon>
            <polygon id="Fill-11" fill="#333333" points="60 52 61 52 61 51 60 51"></polygon>
            <polygon id="Fill-12" fill="#333333" points="64 52 65 52 65 51 64 51"></polygon>
            <polygon id="Fill-13" fill="#333333" points="69 52 70 52 70 51 69 51"></polygon>
            <polygon id="Fill-14" fill="#333333" points="73 52 74 52 74 51 73 51"></polygon>
            <polygon id="Fill-15" fill="#333333" points="77 52 78 52 78 51 77 51"></polygon>
            <polygon id="Fill-16" fill="#333333" points="80 52 81 52 81 51 80 51"></polygon>
            <polygon id="Fill-18" fill="#F09B22" points="44 86 54 86 54 82 44 82"></polygon>
            <polygon id="Fill-18" fill="#F09B22" points="30 86 40 86 40 82 30 82"></polygon>
            <polygon id="Fill-18" fill="#F09B22" points="62 86 72 86 72 82 62 82"></polygon>
            <polygon id="Fill-18" fill="#F09B22" points="76 86 86 86 86 82 76 82"></polygon>
            <polygon id="Fill-21" fill="#F09B22" points="31 55 85 55 85 53 31 53"></polygon>
        </g>
    </g>
</svg>