<?xml version="1.0" encoding="UTF-8"?>
<svg width="64px" height="64px" viewBox="0 0 64 64" version="1.1" xmlns="http://www.w3.org/2000/svg" xmlns:xlink="http://www.w3.org/1999/xlink">
    <!-- Generator: Sketch 49.1 (51147) - http://www.bohemiancoding.com/sketch -->
    <title>academia</title>
    <desc>Created with Sketch.</desc>
    <defs></defs>
    <g id="Page-1" stroke="none" stroke-width="1" fill="none" fill-rule="evenodd">
        <g id="academia" transform="translate(1.000000, 1.000000)">
            <path d="M31,0 L1.99973526,12.4117466 L1.99973526,20.0593056 L4.00015443,20.0593056 L4.00015443,50.0171396 L4.00015443,52.0147383 L4.00015443,55.0101119 L1.99973526,55.0101119 L1.99973526,60.0030842 L0,60.0030842 L0,62 L62,62 L62,60.0030842 L59.9995808,60.0030842 L59.9995808,55.0101119 L57.9998456,55.0101119 L57.9998456,52.0147383 L57.9998456,50.0171396 L57.9998456,20.0593056 L59.9995808,20.0593056 L59.9995808,12.4117466 L31,0 Z M4.00015443,13.7277714 L31,2.17311421 L57.9998456,13.7277714 L57.9998456,18.0623898 L49.9995367,18.0623898 L43.999647,18.0623898 L36.0000221,18.0623898 L25.9999779,18.0623898 L18.000353,18.0623898 L12.0004633,18.0623898 L4.00015443,18.0623898 L4.00015443,13.7277714 Z M51.999272,50.0164566 L55.9994264,50.0164566 L55.9994264,20.0593056 L51.999272,20.0593056 L51.999272,50.0164566 Z M43.999647,50.0164566 L49.9995367,50.0164566 L49.9995367,20.0593056 L43.999647,20.0593056 L43.999647,50.0164566 Z M37.9997573,50.0164566 L41.9999118,50.0164566 L41.9999118,20.0593056 L37.9997573,20.0593056 L37.9997573,50.0164566 Z M25.9999779,50.0164566 L35.9993382,50.0164566 L35.9993382,20.0593056 L25.9999779,20.0593056 L25.9999779,50.0164566 Z M20.0000882,50.0164566 L23.9995588,50.0164566 L23.9995588,20.0593056 L20.0000882,20.0593056 L20.0000882,50.0164566 Z M12.0004633,50.0164566 L18.000353,50.0164566 L18.000353,20.0593056 L12.0004633,20.0593056 L12.0004633,50.0164566 Z M6.0005736,50.0164566 L10.0000441,50.0164566 L10.0000441,20.0593056 L6.0005736,20.0593056 L6.0005736,50.0164566 Z M42.3439155,52.0147383 L43.999647,52.0147383 L49.9995367,52.0147383 L55.9994264,52.0147383 L55.9994264,55.0101119 L43.2439331,55.0101119 L42.3439155,52.0147383 Z M21.7440434,52.0147383 L25.9999779,52.0147383 L36.0000221,52.0147383 L40.2559566,52.0147383 L42.6557757,60.0030842 L19.3442243,60.0030842 L21.7440434,52.0147383 Z M6.0005736,52.0147383 L12.0004633,52.0147383 L18.000353,52.0147383 L19.6560845,52.0147383 L18.7560669,55.0101119 L6.0005736,55.0101119 L6.0005736,52.0147383 Z M43.8437169,57.0070277 L57.9998456,57.0070277 L57.9998456,60.0030842 L44.7437346,60.0030842 L43.8437169,57.0070277 Z M4.00015443,57.0070277 L18.1562831,57.0070277 L17.2562654,60.0030842 L4.00015443,60.0030842 L4.00015443,57.0070277 Z" id="Fill-1" stroke="#02306A" fill="#02306A"></path>
            <polygon id="Fill-2" fill="#02306A" points="22 58 39 58 39 57 22 57"></polygon>
            <polygon id="Fill-3" fill="#02306A" points="22 55 39 55 39 54 22 54"></polygon>
            <polygon id="Fill-4" fill="#333333" points="6 15 7 15 7 14 6 14"></polygon>
            <polygon id="Fill-5" fill="#333333" points="10 15 11 15 11 14 10 14"></polygon>
            <polygon id="Fill-6" fill="#333333" points="14 15 15 15 15 14 14 14"></polygon>
            <polygon id="Fill-7" fill="#333333" points="17 15 18 15 18 14 17 14"></polygon>
            <polygon id="Fill-8" fill="#333333" points="22 15 23 15 23 14 22 14"></polygon>
            <polygon id="Fill-9" fill="#333333" points="26 15 27 15 27 14 26 14"></polygon>
            <polygon id="Fill-10" fill="#333333" points="30 15 31 15 31 14 30 14"></polygon>
            <polygon id="Fill-11" fill="#333333" points="33 15 34 15 34 14 33 14"></polygon>
            <polygon id="Fill-12" fill="#333333" points="37 15 38 15 38 14 37 14"></polygon>
            <polygon id="Fill-13" fill="#333333" points="42 15 43 15 43 14 42 14"></polygon>
            <polygon id="Fill-14" fill="#333333" points="46 15 47 15 47 14 46 14"></polygon>
            <polygon id="Fill-15" fill="#333333" points="50 15 51 15 51 14 50 14"></polygon>
            <polygon id="Fill-16" fill="#333333" points="53 15 54 15 54 14 53 14"></polygon>
            <polygon id="Fill-18" fill="#F09B22" points="17 49 27 49 27 45 17 45"></polygon>
            <polygon id="Fill-18" fill="#F09B22" points="3 49 13 49 13 45 3 45"></polygon>
            <polygon id="Fill-18" fill="#F09B22" points="35 49 45 49 45 45 35 45"></polygon>
            <polygon id="Fill-18" fill="#F09B22" points="49 49 59 49 59 45 49 45"></polygon>
            <polygon id="Fill-21" fill="#F09B22" points="4 18 58 18 58 16 4 16"></polygon>
        </g>
    </g>
</svg>