<?xml version="1.0" encoding="UTF-8"?>
<svg width="11px" height="11px" viewBox="0 0 11 11" version="1.1" xmlns="http://www.w3.org/2000/svg" xmlns:xlink="http://www.w3.org/1999/xlink">
    <!-- Generator: Sketch 49.1 (51147) - http://www.bohemiancoding.com/sketch -->
    <title>Icons/46x46/Light/Settings</title>
    <desc>Created with Sketch.</desc>
    <defs></defs>
    <g id="Page-1" stroke="none" stroke-width="1" fill="none" fill-rule="evenodd">
        <g id="Icons/46x46/Light/Settings" fill="#9E9E9E" fill-rule="nonzero">
            <path d="M4.59922368,2.02881391 C4.78706881,1.98265585 4.9290131,1.82850186 4.95954889,1.63749443 L5.09417273,0.795395358 C5.077948,0.896884312 5.00144073,0.962360381 4.89750302,0.962360381 L6.09453088,0.962360381 C5.99086796,0.962360381 5.91406228,0.896736525 5.89786117,0.795395358 L6.03522664,1.65464381 C6.06529053,1.84269947 6.20343792,1.99532932 6.38757576,2.04393088 C6.61476566,2.10389566 6.83487006,2.18592922 7.04523357,2.28867346 C7.21859613,2.37334597 7.42577186,2.34628108 7.57156482,2.21991495 L8.21462489,1.66254226 C8.13696009,1.72985827 8.03626487,1.73083799 7.95664396,1.6640282 L8.8736205,2.43346188 C8.7942101,2.36682873 8.77755579,2.26718826 8.83028595,2.17914256 L8.38692168,2.9194459 C8.28877411,3.08332689 8.29686193,3.28974708 8.40753109,3.44544637 C8.55205948,3.64878186 8.67519317,3.86651347 8.77472514,4.09527851 C8.85225319,4.2734696 9.02935384,4.38753694 9.22365534,4.38442639 L9.96058381,4.37262897 C9.85781917,4.37427412 9.7800524,4.31029907 9.76200381,4.20794054 L9.96986551,5.38678133 C9.95186464,5.28469341 10.0031544,5.19765921 10.1001428,5.16410655 L9.38307103,5.41217404 C9.20259135,5.4746101 9.07611656,5.63787013 9.06076261,5.82822597 C9.04020816,6.08305679 8.99300989,6.33280978 8.92032515,6.57454259 C8.86415105,6.76136476 8.92633717,6.96361611 9.07776901,7.08660595 L9.78407032,7.66024943 C9.70429056,7.59545394 9.68584018,7.49645876 9.73780904,7.40644618 L9.1392951,8.44310137 C9.19112656,8.35332676 9.28636141,8.3196231 9.3822261,8.35626313 L8.4885862,8.01470888 C8.31347191,7.9477792 8.11542838,7.98864677 7.98111338,8.1194292 C7.83290587,8.26373876 7.67261659,8.39516356 7.5021043,8.51210792 C7.34419069,8.62041157 7.26552254,8.81203894 7.30178777,9.00005798 L7.46876735,9.86577259 C7.4493023,9.76485499 7.49880145,9.67716062 7.59647095,9.64161188 L6.4716327,10.051019 C6.56904398,10.0155642 6.66366242,10.0509614 6.71354725,10.1406499 L6.28509016,9.37032242 C6.19201502,9.20298164 6.0085774,9.10675346 5.81799322,9.12529149 C5.7008546,9.13668551 5.58268458,9.14242362 5.46373673,9.14242362 C5.34478414,9.14242362 5.22660944,9.13668505 5.10946624,9.12529013 C4.91888146,9.1067513 4.73544291,9.20297951 4.64236744,9.37032087 L4.2141407,10.1402342 C4.26409827,10.0504149 4.35838575,10.0150546 4.45605525,10.0506033 L3.331217,9.64119619 C3.42862828,9.67665095 3.47835731,9.76458626 3.4589206,9.86535691 L3.6258043,9.00013933 C3.6620707,8.81211427 3.58339632,8.6204813 3.42547386,8.51217972 C3.25499819,8.39526928 3.0947401,8.26388488 2.94655706,8.11962099 C2.8122416,7.9888579 2.61421232,7.94800108 2.43911032,8.01492606 L1.54388452,8.35708645 C1.63988901,8.32039299 1.73484666,8.3539121 1.78681551,8.44392469 L1.18830158,7.4072695 C1.24013304,7.4970441 1.22170388,7.59637162 1.1420403,7.66107275 L1.84963593,7.08637805 C2.00105979,6.96339468 2.0632481,6.76115733 2.00708792,6.57434171 C1.93441709,6.33260378 1.88723328,6.08284674 1.86669366,5.82801282 C1.85135008,5.63764584 1.72487236,5.4743721 1.54438298,5.41193268 L0.828648197,5.16432773 C0.925778041,5.19792933 0.976974118,5.28464398 0.958925523,5.38700251 L1.16678723,4.20816172 C1.14878635,4.31024963 1.07082222,4.37449291 0.96820723,4.37285015 L1.70373168,4.38462509 C1.8980425,4.3877358 2.07514983,4.27365747 2.15267211,4.0954537 C2.25222809,3.86660013 2.37540348,3.64878708 2.51998892,3.44538089 C2.63066378,3.2896809 2.63875408,3.08325603 2.54060451,2.91937172 L2.09736936,2.17928398 C2.15017642,2.26745807 2.13365571,2.36679351 2.05403481,2.43360329 L2.97101135,1.66416962 C2.89160095,1.73080277 2.79058212,1.72990166 2.71303042,1.66268368 L3.3559206,2.21990911 C3.50171313,2.34627487 3.70888811,2.37334 3.88225044,2.28866831 C4.11090731,2.17699028 4.35102971,2.08980114 4.59922368,2.02881391 Z M3.67107827,1.85630179 L3.98623594,1.49269448 L3.34334576,0.93546905 C3.06386567,0.69322952 2.63551892,0.689408567 2.35241722,0.926958793 L1.43544067,1.69639247 C1.15229576,1.93397895 1.08196619,2.35685551 1.27174871,2.6737431 L1.71498387,3.41383085 L2.12779419,3.16660128 L1.73559946,2.88782167 C1.55249082,3.1454232 1.3964131,3.42141799 1.27019565,3.7115594 L1.71143388,3.90350655 L1.71913608,3.42238801 L0.983611632,3.41061307 C0.61380869,3.40469293 0.283219979,3.67710153 0.219046032,4.0410496 L0.0111843251,5.21989038 C-0.0529994156,5.58389399 0.164945173,5.95304315 0.514018705,6.07380343 L1.22975348,6.32140838 L1.38706823,5.86667053 L0.907442796,5.90532824 C0.933453601,6.22804295 0.993284662,6.54474535 1.08546951,6.85139627 L1.54627872,6.71286899 L1.2429215,6.33935993 L0.53532587,6.91405464 C0.248234984,7.14722399 0.170090442,7.56839913 0.354871957,7.88844969 L0.953385889,8.92510488 C1.1381956,9.24520428 1.54243566,9.38789704 1.88746481,9.25602493 L2.78269062,8.91386454 L2.61090047,8.4643953 L2.27524388,8.8091696 C2.4626903,8.99165844 2.66544068,9.15787928 2.88118992,9.30583787 L3.15333189,8.90900879 L2.68085948,8.81787826 L2.51397577,9.68309584 C2.44392996,10.0462521 2.65479428,10.4191213 3.00206994,10.5455191 L4.12690819,10.9549262 C4.47423684,11.0813434 4.87562394,10.9308122 5.05516574,10.6080121 L5.48339249,9.83809883 L5.06287996,9.60420985 L5.01629369,10.0831296 C5.16439101,10.0975355 5.31365967,10.104784 5.46373673,10.104784 C5.61380781,10.104784 5.76307054,10.0975361 5.91116206,10.0831313 L5.86457764,9.60421139 L5.44406511,9.83810037 L5.8725222,10.6084278 C6.05229668,10.9316462 6.45350411,11.0817398 6.80077976,10.9553419 L7.92561801,10.5459348 C8.27294666,10.4195177 8.48366733,10.0461978 8.41371218,9.68351152 L8.2467326,8.81779691 L7.77426019,8.90892745 L8.04641608,9.30574698 C8.2622116,9.15774551 8.46500138,8.9914736 8.65247872,8.80892703 L8.31679605,8.46417812 L8.1450059,8.91364736 L9.0386458,9.25520161 C9.38412209,9.38724461 9.78794321,9.24433211 9.97272473,8.92428156 L10.5712387,7.88762637 C10.7560484,7.56752697 10.6775041,7.14609889 10.3907847,6.91323132 L9.68448344,6.33958783 L9.38112623,6.71309689 L9.8419273,6.8516512 C9.93412986,6.54500663 9.9939793,6.22830907 10.0200089,5.9055978 L9.54038577,5.86691189 L9.69770052,6.32164974 L10.4147723,6.07358225 C10.7642982,5.95266547 10.9817807,5.58361726 10.9176067,5.2196692 L10.709745,4.04082841 C10.6455613,3.67682481 10.3145037,3.40447941 9.94517941,3.41039189 L9.20825093,3.4221893 L9.21595313,3.90330785 L9.65718113,3.71133718 C9.53099418,3.42130811 9.37496931,3.14541656 9.19193291,2.88790455 L8.799732,3.16667546 L9.21254232,3.41390503 L9.6559066,2.67360169 C9.84593506,2.35630344 9.77531634,1.93380129 9.49221464,1.69625106 L8.57523809,0.926817381 C8.29209318,0.6892309 7.86342792,0.693401626 7.58430955,0.935327638 L6.94124948,1.49270032 L7.25640715,1.85630763 L7.46758073,1.42394181 C7.20075665,1.29362149 6.92146542,1.18952883 6.63317224,1.11343638 L6.510374,1.57868363 L6.98552136,1.50272345 L6.84815589,0.643474996 C6.78977049,0.278262644 6.46409391,0 6.09453088,0 L4.89750302,0 C4.52788359,0 4.20218784,0.278735319 4.14387801,0.643474996 L4.00925416,1.48557407 L4.48440152,1.56153425 L4.36957937,1.09425459 C4.0546419,1.1716423 3.74993775,1.28228126 3.4599061,1.42393528 L3.67107827,1.85630179 Z M7.89130435,5.5 C7.89130435,4.17931908 6.82068092,3.10869565 5.5,3.10869565 C4.17931908,3.10869565 3.10869565,4.17931908 3.10869565,5.5 C3.10869565,6.82068092 4.17931908,7.89130435 5.5,7.89130435 C6.82068092,7.89130435 7.89130435,6.82068092 7.89130435,5.5 Z M4.06521739,5.5 C4.06521739,4.70759145 4.70759145,4.06521739 5.5,4.06521739 C6.29240855,4.06521739 6.93478261,4.70759145 6.93478261,5.5 C6.93478261,6.29240855 6.29240855,6.93478261 5.5,6.93478261 C4.70759145,6.93478261 4.06521739,6.29240855 4.06521739,5.5 Z" id="Settings"></path>
        </g>
    </g>
</svg>