<?xml version="1.0" encoding="UTF-8"?>
<svg width="11px" height="11px" viewBox="0 0 11 11" version="1.1" xmlns="http://www.w3.org/2000/svg" xmlns:xlink="http://www.w3.org/1999/xlink">
    <!-- Generator: Sketch 49.1 (51147) - http://www.bohemiancoding.com/sketch -->
    <title>Icons/46x46/Light/Earth</title>
    <desc>Created with Sketch.</desc>
    <defs></defs>
    <g id="Page-1" stroke="none" stroke-width="1" fill="none" fill-rule="evenodd">
        <g id="Icons/46x46/Light/Earth" fill="#9E9E9E">
            <path d="M0.973203267,4.97983186 L2.73656774,4.97983186 C2.79491252,3.53403883 3.11877619,2.23894914 3.63215414,1.33211523 C2.18903215,1.97092499 1.14418904,3.34535668 0.973203267,4.97983186 Z M0.973203267,5.92837126 C1.14418904,7.56284645 2.18903215,8.93727814 3.63215414,9.57608789 C3.11877619,8.66925398 2.79491252,7.37416429 2.73656774,5.92837126 L0.973203267,5.92837126 Z M9.93499986,4.97983186 C9.76401408,3.34535668 8.71917098,1.97092499 7.27604899,1.33211523 C7.78942694,2.23894914 8.1132906,3.53403883 8.17163538,4.97983186 L9.93499986,4.97983186 Z M9.93499986,5.92837126 L8.17163538,5.92837126 C8.1132906,7.37416429 7.78942694,8.66925398 7.27604899,9.57608789 C8.71917098,8.93727814 9.76401408,7.56284645 9.93499986,5.92837126 Z M3.68629121,5.92837126 C3.79001793,8.21738117 4.63063442,9.95966372 5.45410156,9.95966372 C6.2775687,9.95966372 7.11818519,8.21738117 7.22191192,5.92837126 L3.68629121,5.92837126 Z M3.68629121,4.97983186 L7.22191192,4.97983186 C7.11818519,2.69082196 6.2775687,0.948539402 5.45410156,0.948539402 C4.63063442,0.948539402 3.79001793,2.69082196 3.68629121,4.97983186 Z M10.9082031,5.45410156 C10.9082031,8.46631868 8.46631868,10.9082031 5.45410156,10.9082031 C2.44188445,10.9082031 0,8.46631868 0,5.45410156 C0,2.44188445 2.44188445,0 5.45410156,0 C8.46631868,0 10.9082031,2.44188445 10.9082031,5.45410156 Z" id="Earth"></path>
        </g>
    </g>
</svg>