<?xml version="1.0" encoding="UTF-8"?>
<svg width="11px" height="11px" viewBox="0 0 11 11" version="1.1" xmlns="http://www.w3.org/2000/svg" xmlns:xlink="http://www.w3.org/1999/xlink">
    <!-- Generator: Sketch 49.1 (51147) - http://www.bohemiancoding.com/sketch -->
    <title>Icons/46x46/Light/Accaunt</title>
    <desc>Created with Sketch.</desc>
    <defs></defs>
    <g id="Page-1" stroke="none" stroke-width="1" fill="none" fill-rule="evenodd">
        <g id="Icons/46x46/Light/Accaunt" fill="#9E9E9E" fill-rule="nonzero">
            <path d="M5.5,0 C2.46243388,0 0,2.46243388 0,5.5 C0,8.53756612 2.46243388,11 5.5,11 C8.53756612,11 11,8.53756612 11,5.5 C11,2.46243388 8.53756612,0 5.5,0 Z M5.5,10.0434783 C2.99070625,10.0434783 0.956521739,8.00929375 0.956521739,5.5 C0.956521739,2.99070625 2.99070625,0.956521739 5.5,0.956521739 C8.00929375,0.956521739 10.0434783,2.99070625 10.0434783,5.5 C10.0434783,8.00929375 8.00929375,10.0434783 5.5,10.0434783 Z M3.37398705,7.57185014 C3.61410501,7.4117715 3.82216482,7.3077416 4.21931955,7.1234217 C4.58730789,6.93942753 4.80993218,6.75390729 4.97124779,6.43127607 C5.16629375,6.04118414 5.08276063,5.68848876 4.82179127,5.16655002 C4.80218835,5.12734418 4.78305736,5.08992312 4.75369558,5.0330638 C4.59298728,4.72185091 4.54347826,4.60187668 4.54347826,4.54347826 C4.54347826,2.98024625 4.59881878,2.86956522 5.5,2.86956522 C6.40118122,2.86956522 6.45652174,2.98024625 6.45652174,4.54347826 C6.45652174,4.60187668 6.40701272,4.72185091 6.24630442,5.0330638 C6.21694264,5.08992312 6.19781165,5.12734418 6.17820873,5.16655002 C5.91723937,5.68848876 5.83370625,6.04118414 6.02875221,6.43127607 C6.19006782,6.75390729 6.41269211,6.93942753 6.78068045,7.1234217 C7.17783518,7.3077416 7.38589499,7.4117715 7.62601295,7.57185014 C8.20062894,7.95492746 8.60869565,8.53787992 8.60869565,8.84782609 C8.60869565,9.11196227 8.82282034,9.32608696 9.08695652,9.32608696 C9.35109271,9.32608696 9.56521739,9.11196227 9.56521739,8.84782609 C9.56521739,8.16708903 8.97192541,7.31952906 8.15659575,6.77597595 C7.85867023,6.57735893 7.58846916,6.4422584 7.20844998,6.26788265 C7.00850354,6.16790943 6.93648497,6.10789395 6.88429127,6.00350654 C6.87330074,5.98152549 6.90314107,5.85553298 7.03374779,5.59431955 C7.05105148,5.55971217 7.06859834,5.52538973 7.09619779,5.47194317 C7.34367688,4.99269796 7.41304348,4.82460323 7.41304348,4.54347826 C7.41304348,3.46520591 7.38403703,3.1171285 7.18320431,2.71546306 C6.90309463,2.15524372 6.3581441,1.91304348 5.5,1.91304348 C4.6418559,1.91304348 4.09690537,2.15524372 3.81679569,2.71546306 C3.61596297,3.1171285 3.58695652,3.46520591 3.58695652,4.54347826 C3.58695652,4.82460323 3.65632312,4.99269796 3.90380221,5.47194317 C3.93140166,5.52538973 3.94894852,5.55971217 3.96625221,5.59431955 C4.09685893,5.85553298 4.12669926,5.98152549 4.11570873,6.00350654 C4.06351503,6.10789395 3.99149646,6.16790943 3.79155002,6.26788265 C3.41153084,6.4422584 3.14132977,6.57735893 2.84340425,6.77597595 C2.02807459,7.31952906 1.43478261,8.16708903 1.43478261,8.84782609 C1.43478261,9.11196227 1.64890729,9.32608696 1.91304348,9.32608696 C2.17717966,9.32608696 2.39130435,9.11196227 2.39130435,8.84782609 C2.39130435,8.53787992 2.79937106,7.95492746 3.37398705,7.57185014 Z" id="Account"></path>
        </g>
    </g>
</svg>