<?xml version="1.0" encoding="UTF-8"?>
<svg width="11px" height="12px" viewBox="0 0 11 12" version="1.1" xmlns="http://www.w3.org/2000/svg" xmlns:xlink="http://www.w3.org/1999/xlink">
    <!-- Generator: Sketch 49.1 (51147) - http://www.bohemiancoding.com/sketch -->
    <title>Icons/46x46/Light/Logout</title>
    <desc>Created with Sketch.</desc>
    <defs></defs>
    <g id="Page-1" stroke="none" stroke-width="1" fill="none" fill-rule="evenodd">
        <g id="Icons/46x46/Light/Logout" fill="#9E9E9E">
            <path d="M0,6.2120839 C0,4.4544339 0.837780649,2.83570383 2.22723557,1.81456322 C2.4382988,1.65944827 2.73514486,1.70480331 2.89025981,1.91586654 C3.04537476,2.12692976 3.00001972,2.42377582 2.78895649,2.57889077 C1.64016473,3.42316279 0.948539402,4.75949674 0.948539402,6.2120839 C0.948539402,8.70043717 2.96574829,10.7176461 5.45410156,10.7176461 C7.94245483,10.7176461 9.95966372,8.70043717 9.95966372,6.2120839 C9.95966372,4.74983365 9.25872928,3.40563628 8.09712555,2.56273645 C7.88512667,2.40890274 7.8379745,2.11233683 7.99180821,1.90033796 C8.14564192,1.68833909 8.44220782,1.64118691 8.65420669,1.79502062 C10.0591642,2.81450639 10.9082031,4.44272691 10.9082031,6.2120839 C10.9082031,9.22430102 8.46631868,11.6661855 5.45410156,11.6661855 C2.44188445,11.6661855 0,9.22430102 0,6.2120839 Z M4.97983186,1.22317169 C4.97983186,0.966254703 5.19983001,0.757982337 5.45410156,0.757982337 C5.71603349,0.757982337 5.92837126,0.968976209 5.92837126,1.22317169 L5.92837126,6.22116425 C5.92837126,6.47808123 5.70837311,6.6863536 5.45410156,6.6863536 C5.19216964,6.6863536 4.97983186,6.47535973 4.97983186,6.22116425 L4.97983186,1.22317169 Z" id="Logout"></path>
        </g>
    </g>
</svg>