<?xml version="1.0" encoding="UTF-8"?>
<svg width="32px" height="32px" viewBox="0 0 32 32" version="1.1" xmlns="http://www.w3.org/2000/svg" xmlns:xlink="http://www.w3.org/1999/xlink">
    <!-- Generator: Sketch 49.1 (51147) - http://www.bohemiancoding.com/sketch -->
    <title>Avatar Placeholder</title>
    <desc>Created with Sketch.</desc>
    <defs>
        <path d="M16,0.0001 C24.837,0.0001 32,7.1631 32,16.0001 C32,24.8371 24.837,32.0001 16,32.0001 C7.163,32.0001 0,24.8371 0,16.0001 C0,7.1631 7.163,0.0001 16,0.0001" id="path-1"></path>
    </defs>
    <g id="Page-1" stroke="none" stroke-width="1" fill="none" fill-rule="evenodd">
        <g id="Avatar-Placeholder">
            <mask id="mask-2" fill="white">
                <use xlink:href="#path-1"></use>
            </mask>
            <use id="Mask" fill="#EFF0F4" xlink:href="#path-1"></use>
            <path d="M19.0084,24.4953 C18.9194,23.4933 18.9524,22.7933 18.9524,21.8763 C19.3994,21.6393 20.1984,20.1193 20.3334,18.8353 C20.6844,18.8063 21.2374,18.4583 21.3994,17.0823 C21.4864,16.3443 21.1394,15.9293 20.9284,15.7983 C21.4984,14.0503 22.6844,8.6433 18.7354,8.0853 C18.3294,7.3583 17.2884,6.9913 15.9364,6.9913 C10.5254,7.0923 9.8734,11.1503 11.0594,15.7983 C10.8484,15.9293 10.5014,16.3443 10.5884,17.0823 C10.7504,18.4583 11.3034,18.8063 11.6534,18.8353 C11.7884,20.1183 12.6194,21.6393 13.0664,21.8763 C13.0664,22.7933 13.1004,23.4933 13.0114,24.4953 C12.2404,26.6043 8.2834,26.7703 6.0004,28.8043 C8.3874,31.2493 12.2554,33.0003 16.3374,33.0003 C20.4194,33.0003 25.2174,29.7193 26.0154,28.8243 C23.7464,26.7713 19.7804,26.6113 19.0084,24.4953" id="Silhouette" fill="#C0C4CA" mask="url(#mask-2)"></path>
        </g>
    </g>
</svg>