<?xml version="1.0" encoding="UTF-8"?>
<svg width="119px" height="133px" viewBox="0 0 119 133" version="1.1" xmlns="http://www.w3.org/2000/svg" xmlns:xlink="http://www.w3.org/1999/xlink">
    <!-- Generator: Sketch 49.1 (51147) - http://www.bohemiancoding.com/sketch -->
    <title>businesses_hex</title>
    <desc>Created with Sketch.</desc>
    <defs></defs>
    <g id="Page-1" stroke="none" stroke-width="1" fill="none" fill-rule="evenodd">
        <g id="businesses_hex" transform="translate(1.000000, -1.000000)">
            <path d="M63.4567148,2.88675135 L111.91343,30.8632487 C115.00744,32.6495766 116.91343,35.9508468 116.91343,39.5235027 L116.91343,95.4764973 C116.91343,99.0491532 115.00744,102.350423 111.91343,104.136751 L63.4567148,132.113249 C60.362704,133.899577 56.5507255,133.899577 53.4567148,132.113249 L5,104.136751 C1.90598923,102.350423 4.79616347e-14,99.0491532 4.26325641e-14,95.4764973 L7.10542736e-15,39.5235027 C7.10542736e-15,35.9508468 1.90598923,32.6495766 5,30.8632487 L53.4567148,2.88675135 C56.5507255,1.1004234 60.362704,1.1004234 63.4567148,2.88675135 Z" id="Polygon" stroke="#9D9D9D" fill="#FFFFFF"></path>
            <polygon id="Fill-1" fill="#F09B22" points="60 87 88 87 88 80 60 80"></polygon>
            <polygon id="Fill-2" fill="#F09B22" points="29 74 51 74 51 67 29 67"></polygon>
            <polygon id="Fill-3" fill="#F09B22" points="55 64 64 64 64 56 55 56"></polygon>
            <g id="Group-33" transform="translate(28.000000, 37.000000)">
                <path d="M47.199413,59.033413 L58.9995978,59.033413 L58.9995978,39.3668804 L47.199413,39.3668804 L47.199413,59.033413 Z M49.166,37.4002935 L57.0323478,37.4002935 L57.0323478,35.4337065 L49.166,35.4337065 L49.166,37.4002935 Z M33.4326413,59.033413 L45.2328261,59.033413 L45.2328261,39.3668804 L33.4326413,39.3668804 L33.4326413,59.033413 Z M25.5662935,59.033413 L25.5662935,55.9840761 C27.8073804,55.5265761 29.4994674,53.5414239 29.4994674,51.1670652 C29.4994674,48.4558804 27.2941848,46.2499348 24.583,46.2499348 C24.246837,46.2499348 23.9173043,46.284413 23.5997065,46.3493913 L23.5997065,24.6168152 L20.6498261,24.6168152 L20.6498261,20.6836413 L17.6999457,20.6836413 L17.6999457,16.7504674 L37.3664783,16.7504674 L37.3664783,33.4671196 L33.4326413,33.4671196 L33.4326413,37.4002935 L31.4660543,37.4002935 L31.4660543,59.033413 L25.5662935,59.033413 Z M23.5997065,52.1503587 L23.5997065,53.9359348 C22.4579457,53.5288261 21.6331196,52.4467391 21.6331196,51.1670652 C21.6331196,49.5406196 22.9565543,48.2165217 24.583,48.2165217 C26.2094457,48.2165217 27.5328804,49.5406196 27.5328804,51.1670652 C27.5328804,52.4467391 26.7080543,53.5288261 25.5662935,53.9359348 L25.5662935,52.1503587 L23.5997065,52.1503587 Z M17.6999457,55.9840761 C18.9053587,55.738087 19.9397065,55.0399022 20.6498261,54.0864457 C21.3599457,55.0399022 22.3942935,55.738087 23.5997065,55.9840761 L23.5997065,59.033413 L17.6999457,59.033413 L17.6999457,55.9840761 Z M15.7333587,52.1503587 L15.7333587,53.9359348 C14.5915978,53.5288261 13.7667717,52.4467391 13.7667717,51.1670652 C13.7667717,49.5406196 15.0902065,48.2165217 16.7166522,48.2165217 C18.3430978,48.2165217 19.6665326,49.5406196 19.6665326,51.1670652 C19.6665326,52.4467391 18.8417065,53.5288261 17.6999457,53.9359348 L17.6999457,52.1503587 L15.7333587,52.1503587 Z M9.83293478,55.9840761 C11.0390109,55.738087 12.0733587,55.0399022 12.7834783,54.0864457 C13.4929348,55.0399022 14.5272826,55.738087 15.7333587,55.9840761 L15.7333587,59.033413 L9.83293478,59.033413 L9.83293478,55.9840761 Z M7.86634783,53.9359348 C6.72525,53.5288261 5.89976087,52.4467391 5.89976087,51.1670652 C5.89976087,49.5406196 7.22319565,48.2165217 8.8496413,48.2165217 C10.476087,48.2165217 11.8001848,49.5406196 11.8001848,51.1670652 C11.8001848,52.4467391 10.9746957,53.5288261 9.83293478,53.9359348 L9.83293478,52.1503587 L7.86634783,52.1503587 L7.86634783,53.9359348 Z M1.96658696,26.5840652 L21.6331196,26.5840652 L21.6331196,47.2332283 L21.6636196,47.2332283 C21.2770652,47.5203261 20.9369239,47.8611304 20.6498261,48.2470217 C19.7527283,47.0429348 18.329837,46.2499348 16.7166522,46.2499348 C15.1028043,46.2499348 13.679913,47.0429348 12.7834783,48.2470217 C11.8863804,47.0429348 10.4634891,46.2499348 8.8496413,46.2499348 C6.13911957,46.2499348 3.93317391,48.4558804 3.93317391,51.1670652 C3.93317391,53.5407609 5.62526087,55.5265761 7.86634783,55.9840761 L7.86634783,59.033413 L1.96658696,59.033413 L1.96658696,26.5840652 Z M4.91646739,24.6168152 L18.6832391,24.6168152 L18.6832391,22.6502283 L4.91646739,22.6502283 L4.91646739,24.6168152 Z M19.6665326,14.7838804 L35.3998913,14.7838804 L35.3998913,12.8172935 L19.6665326,12.8172935 L19.6665326,14.7838804 Z M21.6331196,9.33631522 L27.5328804,4.27928261 L33.4326413,9.33631522 L33.4326413,10.8507065 L21.6331196,10.8507065 L21.6331196,9.33631522 Z M35.3998913,37.4002935 L43.2662391,37.4002935 L43.2662391,35.4337065 L35.3998913,35.4337065 L35.3998913,37.4002935 Z M58.9995978,37.4002935 L58.9995978,33.4671196 L47.199413,33.4671196 L47.199413,37.4002935 L45.2328261,37.4002935 L45.2328261,33.4671196 L39.3330652,33.4671196 L39.3330652,14.7838804 L37.3664783,14.7838804 L37.3664783,10.8507065 L35.3998913,10.8507065 L35.3998913,8.43192391 L28.5161739,2.5315 L28.5161739,0.0338152174 L26.549587,0.0338152174 L26.549587,2.5315 L19.6665326,8.43192391 L19.6665326,10.8507065 L17.6999457,10.8507065 L17.6999457,14.7838804 L15.7333587,14.7838804 L15.7333587,20.6836413 L2.94988043,20.6836413 L2.94988043,24.6168152 L0,24.6168152 L0,61 L31.4660543,61 L32.4493478,61 L45.2328261,61 L47.199413,61 L60.9661848,61 L60.9661848,37.4002935 L58.9995978,37.4002935 Z" id="Fill-4" stroke="#02306A" stroke-width="0.5" fill="#02306A"></path>
                <polygon id="Fill-6" fill="#333333" points="49.166 45.2666413 51.132587 45.2666413 51.132587 43.3000543 49.166 43.3000543"></polygon>
                <polygon id="Fill-7" fill="#333333" points="55.0657609 45.2666413 57.0323478 45.2666413 57.0323478 43.3000543 55.0657609 43.3000543"></polygon>
                <polygon id="Fill-8" fill="#333333" points="49.166 50.1831087 51.132587 50.1831087 51.132587 48.2165217 49.166 48.2165217"></polygon>
                <polygon id="Fill-9" fill="#333333" points="55.0657609 50.1831087 57.0323478 50.1831087 57.0323478 48.2165217 55.0657609 48.2165217"></polygon>
                <polygon id="Fill-10" fill="#333333" points="49.166 55.1002391 51.132587 55.1002391 51.132587 53.1336522 49.166 53.1336522"></polygon>
                <polygon id="Fill-11" fill="#333333" points="55.0657609 55.1002391 57.0323478 55.1002391 57.0323478 53.1336522 55.0657609 53.1336522"></polygon>
                <polygon id="Fill-12" fill="#333333" points="35.3998913 45.2666413 37.3664783 45.2666413 37.3664783 43.3000543 35.3998913 43.3000543"></polygon>
                <polygon id="Fill-13" fill="#333333" points="41.2996522 45.2666413 43.2662391 45.2666413 43.2662391 43.3000543 41.2996522 43.3000543"></polygon>
                <polygon id="Fill-14" fill="#333333" points="35.3998913 50.1831087 37.3664783 50.1831087 37.3664783 48.2165217 35.3998913 48.2165217"></polygon>
                <polygon id="Fill-15" fill="#333333" points="41.2996522 50.1831087 43.2662391 50.1831087 43.2662391 48.2165217 41.2996522 48.2165217"></polygon>
                <polygon id="Fill-16" fill="#333333" points="35.3998913 55.1002391 37.3664783 55.1002391 37.3664783 53.1336522 35.3998913 53.1336522"></polygon>
                <polygon id="Fill-17" fill="#333333" points="41.2996522 55.1002391 43.2662391 55.1002391 43.2662391 53.1336522 41.2996522 53.1336522"></polygon>
                <polygon id="Fill-18" fill="#333333" points="4.91646739 32.4838261 6.88305435 32.4838261 6.88305435 30.5172391 4.91646739 30.5172391"></polygon>
                <polygon id="Fill-19" fill="#333333" points="10.8162283 32.4838261 12.7828152 32.4838261 12.7828152 30.5172391 10.8162283 30.5172391"></polygon>
                <polygon id="Fill-20" fill="#333333" points="4.91646739 37.4002935 6.88305435 37.4002935 6.88305435 35.4337065 4.91646739 35.4337065"></polygon>
                <polygon id="Fill-21" fill="#333333" points="10.8162283 37.4002935 12.7828152 37.4002935 12.7828152 35.4337065 10.8162283 35.4337065"></polygon>
                <polygon id="Fill-22" fill="#333333" points="4.91646739 42.3167609 6.88305435 42.3167609 6.88305435 40.3501739 4.91646739 40.3501739"></polygon>
                <polygon id="Fill-23" fill="#333333" points="10.8162283 42.3167609 12.7828152 42.3167609 12.7828152 40.3501739 10.8162283 40.3501739"></polygon>
                <polygon id="Fill-24" fill="#333333" points="16.7166522 32.4838261 18.6832391 32.4838261 18.6832391 30.5172391 16.7166522 30.5172391"></polygon>
                <polygon id="Fill-25" fill="#333333" points="16.7166522 37.4002935 18.6832391 37.4002935 18.6832391 35.4337065 16.7166522 35.4337065"></polygon>
                <polygon id="Fill-26" fill="#333333" points="16.7166522 42.3167609 18.6832391 42.3167609 18.6832391 40.3501739 16.7166522 40.3501739"></polygon>
                <polygon id="Fill-27" fill="#333333" points="26.549587 20.6836413 35.3992283 20.6836413 35.3992283 18.7170543 26.549587 18.7170543"></polygon>
                <polygon id="Fill-28" fill="#333333" points="26.549587 24.6168152 35.3992283 24.6168152 35.3992283 22.6502283 26.549587 22.6502283"></polygon>
                <polygon id="Fill-29" fill="#333333" points="26.549587 28.5506522 35.3992283 28.5506522 35.3992283 26.5840652 26.549587 26.5840652"></polygon>
                <polygon id="Fill-30" fill="#333333" points="25.5662935 35.4337065 27.5328804 35.4337065 27.5328804 33.4671196 25.5662935 33.4671196"></polygon>
                <polygon id="Fill-31" fill="#333333" points="25.5662935 39.3668804 27.5328804 39.3668804 27.5328804 37.4002935 25.5662935 37.4002935"></polygon>
                <polygon id="Fill-32" fill="#333333" points="29.4994674 35.4337065 31.4660543 35.4337065 31.4660543 33.4671196 29.4994674 33.4671196"></polygon>
            </g>
        </g>
    </g>
</svg>