<?xml version="1.0" encoding="utf-8"?>
<!-- Generator: Adobe Illustrator 19.0.0, SVG Export Plug-In . SVG Version: 6.00 Build 0)  -->
<svg version="1.1" id="Layer_1" xmlns="http://www.w3.org/2000/svg" xmlns:xlink="http://www.w3.org/1999/xlink" x="0px" y="0px"
	 viewBox="0 0 48 48" style="enable-background:new 0 0 48 48;" xml:space="preserve">
<style type="text/css">
	.st0{fill:#18A685;}
	.st1{fill:#1A2C42;}
</style>
<path id="XMLID_6888_" class="st0" d="M41,43V4.9c0-1.4-1.1-2.6-2.6-2.6h-28C9,2.3,7.8,3.4,7.8,4.9V43c0,1.4,1.1,2.6,2.6,2.6h28
	C39.9,45.5,41,44.4,41,43z M12.3,41.1V6.7h24.2v34.4H12.3z"/>
<g id="XMLID_20_">
	<path id="XMLID_31_" class="st1" d="M38.3,0.6H10.4c-2.3,0-4.3,1.9-4.3,4.3V43c0,2.3,1.8,4.1,4.1,4.3l0,0h28c2.3,0,4.3-1.9,4.3-4.3
		V4.9C42.6,2.5,40.7,0.6,38.3,0.6z M39.3,43c0,0.5-0.4,1-1,1h-28c-0.5,0-1-0.4-1-1V4.9c0-0.5,0.4-1,1-1h28c0.5,0,1,0.4,1,1V43z"/>
	<rect id="XMLID_35_" x="17.3" y="17.1" class="st1" width="3.6" height="8"/>
	<rect id="XMLID_36_" x="22.7" y="17.1" class="st1" width="3.6" height="8"/>
	<rect id="XMLID_37_" x="28.2" y="17.1" class="st1" width="3.6" height="8"/>
	<polygon id="XMLID_56_" class="st1" points="33.4,14.4 33.4,13.2 24.4,9.1 15.4,13.2 15.4,14.4 15.4,15.7 33.4,15.7 	"/>
	<rect id="XMLID_57_" x="15.4" y="26.5" class="st1" width="18" height="2.5"/>
	<polygon id="XMLID_58_" class="st1" points="28.3,43 31.3,41.7 34.3,43 34.3,38.3 28.3,38.3 	"/>
</g>
<circle id="XMLID_6459_" class="st0" cx="31.3" cy="35.1" r="4.4"/>
</svg>
