<?xml version="1.0" encoding="utf-8"?>
<!-- Generator: Adobe Illustrator 19.0.0, SVG Export Plug-In . SVG Version: 6.00 Build 0)  -->
<svg version="1.1" id="Layer_1" xmlns="http://www.w3.org/2000/svg" xmlns:xlink="http://www.w3.org/1999/xlink" x="0px" y="0px"
	 viewBox="0 0 48 48" style="enable-background:new 0 0 48 48;" xml:space="preserve">
<style type="text/css">
	.st0{fill:#F06823;}
	.st1{fill:#1A2C42;}
	.st2{fill-rule:evenodd;clip-rule:evenodd;fill:#1A2C42;}
</style>
<g id="XMLID_24_">
	<polygon id="XMLID_7011_" class="st0" points="31.6,26.5 30.1,25.4 23.8,34.6 17.5,25.4 16,26.5 23.8,37.9 	"/>
	<g id="XMLID_6982_">
		<path id="XMLID_6983_" class="st1" d="M13.5,8.7c0,1.6,0,2.2,0,2.5c0,3,4.6,5.5,10.3,5.7c5.8-0.2,10.3-2.6,10.3-5.7
			c0-0.3,0-0.9,0-2.5l-10,3.9c-0.2,0.1-0.4,0.1-0.6,0L13.5,8.7z M13.5,8.7"/>
		<g id="XMLID_6963_">
			<path id="XMLID_6966_" class="st1" d="M38.7,5.6c0.1,0,0.1-0.1,0.1-0.2c0-0.1-0.1-0.2-0.1-0.2L24.1,0.1c-0.2-0.1-0.4-0.1-0.6,0
				L8.9,5.2c-0.1,0-0.1,0.1-0.1,0.2c0,0.1,0.1,0.2,0.1,0.2l14.6,5.7c0.2,0.1,0.4,0.1,0.6,0L37.7,6v6.4h1V5.6z"/>
		</g>
	</g>
	<g id="XMLID_6965_">
		<path id="XMLID_6975_" class="st2" d="M30.7,15.7v2.1c0,3.8-3.1,6.8-6.9,6.8s-6.9-3.1-6.9-6.8v-2.1c0-1,0.2-2,0.6-2.8h-3.1
			c-0.3,0.9-0.4,1.8-0.4,2.8v2.1c0,2.3,0.8,4.5,2.3,6.3c-1,0.2-2,0.6-2.9,1.2c-3.7,2.2-4.4,6-4.4,6.2c-0.1,0.7-0.2,1.4-0.2,2.1v12.6
			h30V33.4c0-0.7-0.1-1.4-0.2-2.1c0-0.2-0.9-4.4-4.4-6.2c-0.9-0.5-1.9-0.9-2.9-1.2c1.2-1.5,2-3.3,2.3-5.2l0.1-2.1v-1
			c0-1-0.2-1.9-0.4-2.8h-3.1C30.5,13.7,30.7,14.7,30.7,15.7z M23.8,27.1c1,0,1.9-0.1,2.7-0.4l-2.7,3.8l-2.7-3.8
			C21.9,26.9,22.9,27.1,23.8,27.1z M35.9,33.4v9.8h-3.4V37h-2.9v6.2H17.9V37h-2.9v6.2h-3.4v-9.8c0-3.5,2.6-6.4,6.2-6.8l0.2,0
			l5.8,8.1l5.8-8.1l0.2,0C33.3,27,35.9,29.9,35.9,33.4z"/>
	</g>
	<polygon id="XMLID_6971_" class="st0" points="38.6,13.4 39.1,12.8 38.2,11.7 37.3,12.8 37.8,13.4 37.1,15.4 38.2,16.6 39.3,15.4 	
		"/>
</g>
</svg>
