<?xml version="1.0" encoding="UTF-8"?>
<svg width="10px" height="17px" viewBox="0 0 10 17" version="1.1" xmlns="http://www.w3.org/2000/svg" xmlns:xlink="http://www.w3.org/1999/xlink">
    <!-- Generator: Sketch 49.1 (51147) - http://www.bohemiancoding.com/sketch -->
    <title>Page 1</title>
    <desc>Created with Sketch.</desc>
    <defs></defs>
    <g id="Page-1" stroke="none" stroke-width="1" fill="none" fill-rule="evenodd">
        <g>
            <polygon id="Fill-1" fill="#FBD233" points="5.0058 -0.0001 2.0078 7.2809 5.0058 10.2789 8.0038 7.2809"></polygon>
            <polygon id="Fill-2" fill="#FBD233" points="5.3109 10.8701 5.3109 16.5581 10.0069 12.3731 8.1969 8.0291"></polygon>
            <polygon id="Fill-3" fill="#F39227" points="5.0058 -0.0001 5.0058 10.2789 8.0038 7.2809"></polygon>
            <polygon id="Fill-4" fill="#F39227" points="7.3485 12.4721 5.3105 16.5581 10.0075 12.3731 8.1975 8.0291"></polygon>
            <polygon id="Fill-5" fill="#F5BA25" points="5.3109 10.8701 7.3489 12.4721 10.0069 12.3731 8.1969 8.0291"></polygon>
            <polygon id="Fill-6" fill="#F27233" points="7.3485 12.4721 10.0075 12.3731 8.1975 8.0291"></polygon>
            <polygon id="Fill-7" fill="#F39227" points="0 12.3731 4.697 16.5581 4.697 10.8701 1.81 8.0291"></polygon>
            <polygon id="Fill-8" fill="#FBD233" points="0 12.3731 4.697 16.5581 2.66 12.4721 1.81 8.0291"></polygon>
            <polygon id="Fill-9" fill="#F27233" points="0 12.3731 2.66 12.4721 4.697 10.8701 1.81 8.0291"></polygon>
            <polygon id="Fill-10" fill="#F5BA25" points="0 12.3731 2.659 12.4721 1.81 8.0291"></polygon>
            <polygon id="Fill-11" fill="#F5BA25" points="5.0058 -0.0001 2.0078 7.2809 5.0058 5.8509 8.0038 7.2809"></polygon>
            <polygon id="Fill-12" fill="#F27233" points="5.0058 -0.0001 5.0058 5.8509 8.0038 7.2809"></polygon>
            <polygon id="Fill-13" fill="#FBD233" points="5.0058 -0.0001 2.0078 7.2809 5.0058 3.0549"></polygon>
            <polygon id="Fill-14" fill="#FBD233" points="0 12.3731 2.225 10.2001 1.81 8.0291"></polygon>
            <polygon id="Fill-15" fill="#FBD233" points="5.3105 10.8699 7.8325 9.9359 8.1975 8.0289"></polygon>
        </g>
    </g>
</svg>