<?xml version="1.0" encoding="utf-8"?>
<!-- Generator: Adobe Illustrator 19.0.0, SVG Export Plug-In . SVG Version: 6.00 Build 0)  -->
<svg version="1.1" id="Layer_1" xmlns="http://www.w3.org/2000/svg" xmlns:xlink="http://www.w3.org/1999/xlink" x="0px" y="0px"
	 viewBox="0 0 32 42" style="enable-background:new 0 0 32 42;" xml:space="preserve">
<style type="text/css">
	.st0{fill:#FFFFFF;}
	.st1{fill:#3C97D3;}
	.st2{fill:#F0EFEF;}
</style>
<g id="XMLID_6680_">
	<path id="XMLID_6684_" class="st0" d="M27.4,29.4l-9.4,9.3c-1.1,1.1-2.8,1.1-3.9,0l-9.4-9.3c-1.9-1.8-2.9-4.3-2.9-7V7.6
		c0-1.5,0.8-2.8,2.2-3.4l0,0c7.7-3.7,16.6-3.7,24.2,0l0,0c1.3,0.6,2.2,2,2.2,3.4v14.8C30.3,25,29.2,27.5,27.4,29.4z"/>
	<path id="XMLID_6683_" class="st1" d="M28.7,21.7V8.7c0-1.3-0.7-2.4-1.9-3h0C19.9,2.5,12,2.5,5.2,5.7h0C4,6.3,3.3,7.4,3.3,8.7v12.9
		c0,2.3,0.9,4.5,2.6,6.1l8.4,8.1c1,0.9,2.5,0.9,3.4,0l8.4-8.1C27.7,26.1,28.7,23.9,28.7,21.7z"/>
	<path id="XMLID_6682_" class="st0" d="M25.2,27.2l-7.7,7.5c-0.9,0.9-2.3,0.9-3.2,0l-7.7-7.5c-1.5-1.5-2.4-3.5-2.4-5.7v-12
		c0-1.2,0.7-2.3,1.8-2.8l0,0c6.2-3,13.5-3,19.7,0l0,0c1.1,0.5,1.8,1.6,1.8,2.8v12C27.6,23.7,26.7,25.7,25.2,27.2z"/>
	<path id="XMLID_6681_" class="st2" d="M25.8,6.7L25.8,6.7c-6.2-3-13.5-3-19.7,0h0C5,7.2,4.4,8.3,4.4,9.5v1.7C4.4,10,5,8.9,6.1,8.4
		h0c6.2-3,13.5-3,19.7,0h0c1.1,0.5,1.8,1.6,1.8,2.8V9.5C27.6,8.3,26.9,7.2,25.8,6.7z"/>
</g>
<g id="XMLID_5640_">
	<path id="XMLID_5654_" class="st2" d="M16.1,27.1c-4.6,0-8.3-3.7-8.3-8.3c0-4.6,3.7-8.3,8.3-8.3s8.3,3.7,8.3,8.3
		C24.4,23.4,20.7,27.1,16.1,27.1z M16.1,12.7c-3.4,0-6.1,2.7-6.1,6.1c0,3.4,2.7,6.1,6.1,6.1s6.1-2.7,6.1-6.1
		C22.2,15.4,19.5,12.7,16.1,12.7z"/>
	<path id="XMLID_5643_" class="st2" d="M18.6,22.3c-0.2,0-0.4-0.1-0.6-0.2l-2.5-1.6c-0.4-0.3-0.7-0.7-0.7-1.2v-4.3
		c0-0.6,0.5-1.1,1.1-1.1s1.1,0.5,1.1,1.1v3.8l2.2,1.3c0.2,0.2,0.4,0.4,0.5,0.7c0.1,0.3,0,0.6-0.1,0.8C19.3,22.1,19,22.3,18.6,22.3
		L18.6,22.3z"/>
</g>
<g id="XMLID_3852_">
	<path id="XMLID_5637_" class="st1" d="M16.1,25.7c-4.6,0-8.3-3.7-8.3-8.3c0-4.6,3.7-8.3,8.3-8.3s8.3,3.7,8.3,8.3
		C24.4,21.9,20.7,25.7,16.1,25.7z M16.1,11.3c-3.4,0-6.1,2.7-6.1,6.1c0,3.4,2.7,6.1,6.1,6.1s6.1-2.7,6.1-6.1
		C22.2,14,19.5,11.3,16.1,11.3z"/>
	<path id="XMLID_3853_" class="st1" d="M18.6,20.9c-0.2,0-0.4-0.1-0.6-0.2l-2.5-1.6c-0.4-0.3-0.7-0.7-0.7-1.2v-4.3
		c0-0.6,0.5-1.1,1.1-1.1s1.1,0.5,1.1,1.1v3.8l2.2,1.3c0.2,0.2,0.4,0.4,0.5,0.7c0.1,0.3,0,0.6-0.1,0.8C19.3,20.7,19,20.9,18.6,20.9
		L18.6,20.9z"/>
</g>
</svg>
