<?xml version="1.0" encoding="utf-8"?>
<!-- Generator: Adobe Illustrator 19.0.0, SVG Export Plug-In . SVG Version: 6.00 Build 0)  -->
<svg version="1.1" id="Layer_1" xmlns="http://www.w3.org/2000/svg" xmlns:xlink="http://www.w3.org/1999/xlink" x="0px" y="0px"
	 viewBox="0 0 48 48" style="enable-background:new 0 0 48 48;" xml:space="preserve">
<style type="text/css">
	.st0{fill:#18A685;}
	.st1{fill:#1A2C42;}
</style>
<path id="XMLID_6704_" class="st0" d="M43.1,12.1H4.9c-1.4,0-2.6,1.1-2.6,2.6v25.4c0,1.4,1.1,2.6,2.6,2.6h38.1
	c1.4,0,2.6-1.1,2.6-2.6V14.7C45.6,13.2,44.5,12.1,43.1,12.1z M41.2,38.2H6.8V16.5h34.4V38.2z"/>
<path id="XMLID_31_" class="st1" d="M43.1,10.5h-9.6V6.8c0-2-1.7-3.7-3.7-3.7H18.2c-2,0-3.7,1.7-3.7,3.7v3.7H4.9
	c-2.3,0-4.3,1.9-4.3,4.3V40c0,2.3,1.9,4.3,4.3,4.3h38.1c2.3,0,4.1-1.8,4.3-4.1l0,0V14.7C47.3,12.4,45.4,10.5,43.1,10.5z M20.4,24.9
	h7.1v5h-7.1V24.9z M17.8,6.8c0-0.2,0.2-0.4,0.4-0.4h11.7c0.2,0,0.4,0.2,0.4,0.4v3.7H17.8V6.8z M4.9,13.7h38.1c0.5,0,1,0.4,1,1v11.7
	H29.4v-2.4c0-0.6-0.4-0.9-0.9-0.9h-9c-0.6,0-0.9,0.4-0.9,0.9v2.4H4V14.7C4,14.2,4.4,13.7,4.9,13.7z M43.1,41H4.9c-0.5,0-1-0.4-1-1
	V28.2h14.6v2.6c0,0.6,0.4,0.9,0.9,0.9h9c0.6,0,0.9-0.5,0.9-0.9v-2.6H44v11.8C44,40.6,43.6,41,43.1,41z"/>
<rect id="XMLID_6951_" x="20.4" y="24.9" class="st0" width="7.1" height="5"/>
</svg>
