<?xml version="1.0" encoding="utf-8"?>
<!-- Generator: Adobe Illustrator 19.0.0, SVG Export Plug-In . SVG Version: 6.00 Build 0)  -->
<svg version="1.1" id="Layer_1" xmlns="http://www.w3.org/2000/svg" xmlns:xlink="http://www.w3.org/1999/xlink" x="0px" y="0px"
	 viewBox="0 0 48 48" style="enable-background:new 0 0 48 48;" xml:space="preserve">
<style type="text/css">
	.st0{fill:#F06823;}
	.st1{fill-rule:evenodd;clip-rule:evenodd;fill:#1A2C42;}
</style>
<g id="XMLID_20_">
	<g id="XMLID_6964_">
		<path id="XMLID_6967_" class="st0" d="M22.6,33.1L22.6,33.1l0.1,0.2c0,0,0.6,0.3,1,0.3s1-0.3,1-0.3l1.1-2l-2.1-2.1l-2.1,2.1
			L22.6,33.1L22.6,33.1z"/>
		<path id="XMLID_6968_" class="st0" d="M24.8,33.9c0,0-0.7,0.3-1.1,0.3s-1.1-0.3-1.1-0.3l0,0l-1.4,8.9l2.5,2.9l2.5-2.9L24.8,33.9z"
			/>
	</g>
	<path id="XMLID_7001_" class="st1" d="M38.6,31.3c0-0.2-0.9-4.4-4.4-6.2c-0.9-0.5-1.9-0.9-2.9-1.2c1.2-1.5,2-3.3,2.3-5.2l0.1-2.1
		v-1c0-4.9-3.7-9.1-8.7-9.6l-2.1,0c0,0,0,0-0.1,0h0c0,0,0,0,0,0c-0.4,0-0.7,0.1-1.1,0.2c-0.2,0-0.3,0.1-0.5,0.1
		c-0.2,0.1-0.3,0.1-0.5,0.2c-2.7,0.9-4.8,2.9-5.9,5.5h0c0,0,0,0,0,0c-0.1,0.3-0.2,0.5-0.3,0.8c0,0,0,0,0,0.1
		c-0.1,0.2-0.1,0.5-0.2,0.7c0,0.1,0,0.1,0,0.2c0,0.2-0.1,0.4-0.1,0.6c0,0.1,0,0.2,0,0.3c0,0.2,0,0.4,0,0.6c0,0.1,0,0.2,0,0.3v0v2v0
		c0,0.1,0,0.2,0,0.3c0,0.2,0,0.4,0,0.6c0,0.1,0,0.2,0,0.3c0,0.2,0.1,0.4,0.1,0.6c0,0.1,0,0.1,0,0.2c0.1,0.2,0.1,0.5,0.2,0.7
		c0,0,0,0,0,0.1c0.1,0.3,0.2,0.5,0.3,0.8c0,0,0,0,0,0h0c0.4,1,1,1.8,1.6,2.6c-1,0.2-2,0.6-2.8,1.2c-3.7,2.2-4.4,6-4.4,6.2
		c-0.1,0.7-0.2,1.4-0.2,2.1V46h30V33.4C38.8,32.7,38.7,32,38.6,31.3z M21.2,9.3c0.4-0.1,0.7-0.3,1.1-0.3c0.1,0,0.2,0,0.3-0.1
		c0.4-0.1,0.7-0.1,1.1-0.1c0,0,0.1,0,0.1,0c0.2,0,0.4,0,0.6,0c0.2,0,0.3,0,0.5,0c0.3,0,0.6,0.1,0.9,0.2c0,0,0.1,0,0.1,0
		c1.9,0.6,3.4,2,4.2,3.8c0.1,0.1,0.1,0.2,0.1,0.4c0.1,0.3,0.2,0.5,0.3,0.8c0,0.1,0.1,0.2,0.1,0.3c0.1,0.4,0.1,0.8,0.1,1.2v2
		c0,0.4-0.1,0.8-0.1,1.2c0,0.1-0.1,0.2-0.1,0.3c-0.1,0.3-0.2,0.6-0.3,0.8c0,0.1-0.1,0.2-0.1,0.4c-0.8,1.8-2.3,3.2-4.2,3.8
		c0,0-0.1,0-0.1,0c-0.3,0.1-0.6,0.1-0.9,0.2c-0.2,0-0.3,0-0.5,0c-0.2,0-0.4,0-0.6,0c0,0-0.1,0-0.1,0c-0.4,0-0.7,0-1.1-0.1
		c-0.1,0-0.2,0-0.3-0.1c-0.4-0.1-0.8-0.2-1.1-0.3c0,0,0,0-0.1,0c-2.5-1-4.2-3.5-4.2-6.3v-2.1C16.9,12.8,18.6,10.3,21.2,9.3
		C21.1,9.3,21.1,9.3,21.2,9.3z M19.8,26.5c0.9,0.4,1.8,0.6,2.8,0.8l0.2,0l-2,2l-2.7-2.7H19.8z M24.8,27.3c1-0.1,1.9-0.4,2.8-0.8h1.9
		l-2.7,2.7L24.8,27.3L24.8,27.3z M35.9,43.1h-3.4v-6.2h-2.9v6.2H17.9v-6.2h-2.9v6.2h-3.4v-9.8c0-2.8,1.7-5.2,4.1-6.2l3.8,3.8l0,0
		l1.2,1.2l2.9-2.9l2.9,2.9L28,31l0,0l3.8-3.8c2.5,1.1,4.1,3.5,4.1,6.2V43.1z"/>
</g>
</svg>
