<?xml version="1.0" encoding="UTF-8"?>
<svg width="47px" height="63px" viewBox="0 0 47 63" version="1.1" xmlns="http://www.w3.org/2000/svg" xmlns:xlink="http://www.w3.org/1999/xlink">
    <!-- Generator: Sketch 49.1 (51147) - http://www.bohemiancoding.com/sketch -->
    <title>learners</title>
    <desc>Created with Sketch.</desc>
    <defs>
        <polygon id="path-1" points="0.000738461538 0.0442971429 46.9070769 0.0442971429 46.9070769 63 0.000738461538 63"></polygon>
    </defs>
    <g id="Page-1" stroke="none" stroke-width="1" fill="none" fill-rule="evenodd">
        <g id="learners">
            <polygon id="Fill-1" fill="#F09B22" points="33.5923483 29 23.5 43.7671592 13.4058194 29 11 30.7336824 23.5 49 36 30.7336824"></polygon>
            <g id="Group-4">
                <mask id="mask-2" fill="white">
                    <use xlink:href="#path-1"></use>
                </mask>
                <g id="Clip-3"></g>
                <path d="M43.5570462,59.6813257 L36.8555077,59.6813257 L36.8555077,49.7247543 L33.5047385,49.7247543 L33.5047385,59.6813257 L13.4019692,59.6813257 L13.4019692,49.7247543 L10.0512,49.7247543 L10.0512,59.6813257 L3.34966154,59.6813257 L3.34966154,43.3741257 C3.34966154,37.4367543 7.8432,32.4740114 13.7988923,31.8266971 L14.4210462,31.75904 L23.4542769,44.2847543 L32.4856615,31.75904 L33.1059692,31.8266971 C39.0635077,32.4740114 43.5570462,37.4367543 43.5570462,43.3722971 L43.5570462,59.6813257 Z M27.8481231,32.4813257 L23.4542769,38.5722971 L19.0585846,32.4813257 C20.4524308,32.9018971 21.9256615,33.1322971 23.4542769,33.1322971 C24.9810462,33.1322971 26.4561231,32.9018971 27.8481231,32.4813257 Z M11.7275077,18.1983543 L11.7275077,14.8794971 C11.7275077,8.47584 16.9890462,3.26441143 23.4542769,3.26441143 C29.9195077,3.26441143 35.1810462,8.47584 35.1810462,14.8794971 L35.1810462,18.1983543 C35.1810462,24.6020114 29.9195077,29.81344 23.4542769,29.81344 C16.9890462,29.81344 11.7275077,24.6020114 11.7275077,18.1983543 Z M39.7188923,30.6564114 C38.0739692,29.6580114 36.2148923,28.9594971 34.2118154,28.6413257 C36.5102769,26.31904 38.0499692,23.2616686 38.4321231,19.8568686 L38.5318154,16.53984 L38.5318154,14.8794971 C38.5318154,7.20498286 32.6555077,0.87264 25.1287385,0.0442971429 L21.7779692,0.0442971429 C14.2512,0.87264 8.37673846,7.20498286 8.37673846,14.8794971 L8.37673846,18.1983543 C8.37673846,22.26144 10.0290462,25.94784 12.6948923,28.6413257 C10.6936615,28.9576686 8.83458462,29.6580114 7.18781538,30.6564114 C1.46473846,34.0575543 0.347815385,40.1850971 0.347815385,40.1850971 C0.120738462,41.2127543 0.000738461538,42.28064 0.000738461538,43.3741257 L0.000738461538,63.0001829 L46.9078154,63.0001829 L46.9078154,43.3722971 C46.9078154,42.2788114 46.7859692,41.2127543 46.5607385,40.1850971 C46.5607385,40.1850971 45.2333538,33.4468114 39.7188923,30.6564114 Z" id="Fill-2" fill="#02306A" mask="url(#mask-2)"></path>
            </g>
        </g>
    </g>
</svg>