<?xml version="1.0" encoding="utf-8"?>
<!-- Generator: Adobe Illustrator 19.0.0, SVG Export Plug-In . SVG Version: 6.00 Build 0)  -->
<svg version="1.1" id="Layer_1" xmlns="http://www.w3.org/2000/svg" xmlns:xlink="http://www.w3.org/1999/xlink" x="0px" y="0px"
	 viewBox="0 0 370.9 100" style="enable-background:new 0 0 370.9 100;" xml:space="preserve">
<style type="text/css">
	.st0{fill:#FFFFFF;}
	.st1{fill:#F06823;}
</style>
<g id="XMLID_134_">
	<g id="XMLID_149_">
		<g id="XMLID_464_">
			<g id="XMLID_465_">
				<g id="XMLID_466_">
					<g id="XMLID_489_">
						<path id="XMLID_511_" class="st0" d="M134.6,32.1c0,4.4-1.1,7.8-3.3,10.2s-5.3,3.6-9.4,3.6c-4.1,0-7.3-1.2-9.4-3.6
							c-2.2-2.4-3.3-5.8-3.3-10.3s1.1-7.9,3.3-10.2c2.2-2.3,5.4-3.5,9.5-3.5c4.1,0,7.3,1.2,9.4,3.6
							C133.5,24.3,134.6,27.7,134.6,32.1z M115,32.1c0,3,0.6,5.2,1.7,6.8c1.1,1.5,2.8,2.3,5.1,2.3c4.5,0,6.8-3,6.8-9
							c0-6-2.3-9-6.8-9c-2.3,0-4,0.8-5.1,2.3C115.6,26.9,115,29.1,115,32.1z"/>
						<path id="XMLID_508_" class="st0" d="M157.7,27.1c0,2.9-0.9,5.1-2.7,6.6c-1.8,1.5-4.4,2.3-7.7,2.3h-2.4v9.5h-5.7V18.8h8.6
							c3.2,0,5.7,0.7,7.4,2.1C156.8,22.3,157.7,24.3,157.7,27.1z M144.8,31.4h1.9c1.7,0,3.1-0.3,3.9-1c0.9-0.7,1.3-1.7,1.3-3
							c0-1.3-0.4-2.3-1.1-2.9c-0.7-0.6-1.9-1-3.4-1h-2.6V31.4z"/>
						<path id="XMLID_506_" class="st0" d="M177.2,45.5h-15.4V18.8h15.4v4.7h-9.7v5.9h9.1v4.7h-9.1v6.9h9.7V45.5z"/>
						<path id="XMLID_504_" class="st0" d="M205.6,45.5h-7.2l-11.6-20.3h-0.2c0.2,3.6,0.3,6.1,0.3,7.7v12.6h-5.1V18.8h7.2l11.6,20.1
							h0.1c-0.2-3.5-0.3-5.9-0.3-7.4V18.8h5.1V45.5z"/>
						<path id="XMLID_502_" class="st0" d="M236.9,38.1c0,2.4-0.9,4.3-2.6,5.7c-1.7,1.4-4.2,2.1-7.3,2.1c-2.9,0-5.4-0.5-7.6-1.6V39
							c1.8,0.8,3.3,1.4,4.6,1.7c1.3,0.3,2.4,0.5,3.4,0.5c1.2,0,2.2-0.2,2.9-0.7c0.7-0.5,1-1.2,1-2.1c0-0.5-0.1-1-0.4-1.4
							c-0.3-0.4-0.7-0.8-1.3-1.2c-0.6-0.4-1.7-1-3.5-1.8c-1.6-0.8-2.9-1.5-3.7-2.2c-0.8-0.7-1.5-1.5-2-2.5s-0.7-2-0.7-3.3
							c0-2.4,0.8-4.2,2.4-5.6c1.6-1.4,3.8-2,6.7-2c1.4,0,2.7,0.2,4,0.5c1.3,0.3,2.6,0.8,4,1.4l-1.8,4.4c-1.4-0.6-2.6-1-3.5-1.2
							c-0.9-0.2-1.9-0.3-2.8-0.3c-1.1,0-1.9,0.3-2.5,0.8c-0.6,0.5-0.9,1.2-0.9,2c0,0.5,0.1,0.9,0.3,1.3c0.2,0.4,0.6,0.7,1.1,1.1
							c0.5,0.3,1.7,1,3.6,1.9c2.5,1.2,4.2,2.4,5.1,3.6C236.5,34.9,236.9,36.3,236.9,38.1z"/>
						<path id="XMLID_499_" class="st0" d="M265.1,32.1c0,4.4-1.1,7.8-3.3,10.2s-5.3,3.6-9.4,3.6c-4.1,0-7.3-1.2-9.4-3.6
							c-2.2-2.4-3.3-5.8-3.3-10.3s1.1-7.9,3.3-10.2c2.2-2.3,5.4-3.5,9.5-3.5s7.3,1.2,9.4,3.6S265.1,27.7,265.1,32.1z M245.6,32.1
							c0,3,0.6,5.2,1.7,6.8c1.1,1.5,2.8,2.3,5.1,2.3c4.5,0,6.8-3,6.8-9c0-6-2.3-9-6.8-9c-2.3,0-4,0.8-5.1,2.3
							C246.2,26.9,245.6,29.1,245.6,32.1z"/>
						<path id="XMLID_497_" class="st0" d="M291.5,18.8v17.3c0,2-0.4,3.7-1.3,5.2c-0.9,1.5-2.2,2.6-3.8,3.4
							c-1.7,0.8-3.7,1.2-5.9,1.2c-3.4,0-6.1-0.9-8-2.6c-1.9-1.8-2.9-4.2-2.9-7.2V18.8h5.7v16.4c0,2.1,0.4,3.6,1.2,4.5
							c0.8,1,2.2,1.4,4.1,1.4c1.9,0,3.2-0.5,4-1.5c0.8-1,1.3-2.5,1.3-4.6V18.8H291.5z"/>
						<path id="XMLID_494_" class="st0" d="M302.8,35.3v10.3h-5.7V18.8h7.8c3.6,0,6.3,0.7,8.1,2c1.7,1.3,2.6,3.3,2.6,6
							c0,1.6-0.4,3-1.3,4.2c-0.9,1.2-2.1,2.2-3.7,2.9c4,6,6.7,9.9,7.9,11.7h-6.3l-6.4-10.3H302.8z M302.8,30.6h1.8
							c1.8,0,3.1-0.3,4-0.9c0.9-0.6,1.3-1.5,1.3-2.8c0-1.3-0.4-2.2-1.3-2.7c-0.9-0.5-2.2-0.8-4.1-0.8h-1.7V30.6z"/>
						<path id="XMLID_492_" class="st0" d="M332.4,23.1c-2.1,0-3.8,0.8-5,2.4c-1.2,1.6-1.8,3.8-1.8,6.7c0,6,2.2,9,6.7,9
							c1.9,0,4.2-0.5,6.8-1.4v4.8c-2.2,0.9-4.7,1.4-7.4,1.4c-3.9,0-6.9-1.2-8.9-3.5c-2.1-2.4-3.1-5.8-3.1-10.2
							c0-2.8,0.5-5.2,1.5-7.3s2.5-3.7,4.4-4.8s4.1-1.7,6.7-1.7c2.6,0,5.2,0.6,7.8,1.9l-1.8,4.6c-1-0.5-2-0.9-3-1.2
							C334.3,23.3,333.3,23.1,332.4,23.1z"/>
						<path id="XMLID_490_" class="st0" d="M359.4,45.5h-15.4V18.8h15.4v4.7h-9.7v5.9h9.1v4.7h-9.1v6.9h9.7V45.5z"/>
					</g>
					<g id="XMLID_467_">
						<path id="XMLID_487_" class="st0" d="M132,53.2v17.3c0,3.1-0.9,5.5-2.8,7.2c-1.8,1.7-4.4,2.6-7.6,2.6c-3.2,0-5.7-0.9-7.5-2.6
							c-1.8-1.8-2.6-4.2-2.6-7.2V53.2h3.1v17.5c0,2.2,0.6,3.9,1.8,5.1s3,1.8,5.4,1.8c2.3,0,4-0.6,5.2-1.8c1.2-1.2,1.8-2.9,1.8-5.2
							V53.2H132z"/>
						<path id="XMLID_485_" class="st0" d="M160,80h-3.6l-14.6-22.5h-0.1c0.2,2.6,0.3,5.1,0.3,7.3V80h-2.9V53.2h3.5l14.6,22.4h0.1
							c0-0.3-0.1-1.4-0.2-3.2c-0.1-1.8-0.1-3.1-0.1-3.8V53.2h2.9V80z"/>
						<path id="XMLID_483_" class="st0" d="M167.4,80V53.2h3.1V80H167.4z"/>
						<path id="XMLID_481_" class="st0" d="M193.1,53.2h3.4L186.8,80h-3.1l-9.6-26.8h3.3l6.2,17.3c0.7,2,1.3,3.9,1.7,5.8
							c0.4-2,1-3.9,1.7-5.9L193.1,53.2z"/>
						<path id="XMLID_479_" class="st0" d="M215,80h-14.9V53.2H215V56h-11.8v8.6h11.1v2.7h-11.1v9.8H215V80z"/>
						<path id="XMLID_476_" class="st0" d="M224.1,68.8V80H221V53.2h7.3c3.3,0,5.7,0.6,7.3,1.9c1.6,1.3,2.4,3.1,2.4,5.7
							c0,3.5-1.8,5.9-5.4,7.2l7.3,12h-3.7l-6.5-11.1H224.1z M224.1,66.2h4.3c2.2,0,3.8-0.4,4.8-1.3c1-0.9,1.5-2.2,1.5-3.9
							c0-1.8-0.5-3-1.6-3.8s-2.7-1.2-5-1.2h-4V66.2z"/>
						<path id="XMLID_474_" class="st0" d="M259.3,72.8c0,2.4-0.9,4.2-2.6,5.5c-1.7,1.3-4,2-7,2c-3.2,0-5.6-0.4-7.3-1.2v-3
							c1.1,0.5,2.3,0.8,3.6,1.1c1.3,0.3,2.6,0.4,3.8,0.4c2.1,0,3.6-0.4,4.7-1.2c1-0.8,1.6-1.9,1.6-3.3c0-0.9-0.2-1.7-0.6-2.3
							c-0.4-0.6-1-1.1-1.9-1.6c-0.9-0.5-2.2-1.1-4-1.7c-2.5-0.9-4.3-1.9-5.3-3.2c-1.1-1.2-1.6-2.8-1.6-4.8c0-2.1,0.8-3.7,2.3-4.9
							c1.6-1.2,3.6-1.8,6.2-1.8c2.7,0,5.1,0.5,7.3,1.5l-1,2.7c-2.2-0.9-4.4-1.4-6.4-1.4c-1.6,0-2.9,0.4-3.9,1.1
							c-0.9,0.7-1.4,1.7-1.4,2.9c0,0.9,0.2,1.7,0.5,2.3c0.3,0.6,0.9,1.1,1.7,1.6c0.8,0.5,2.1,1,3.7,1.6c2.8,1,4.7,2.1,5.8,3.2
							C258.7,69.5,259.3,71,259.3,72.8z"/>
						<path id="XMLID_472_" class="st0" d="M264.7,80V53.2h3.1V80H264.7z"/>
						<path id="XMLID_470_" class="st0" d="M283.4,80h-3.1V56h-8.5v-2.8h20.1V56h-8.5V80z"/>
						<path id="XMLID_468_" class="st0" d="M302.7,66.6l7.1-13.4h3.4l-8.9,16.4V80h-3.1V69.7l-8.9-16.5h3.4L302.7,66.6z"/>
					</g>
				</g>
			</g>
		</g>
	</g>
	<g id="osu-symbol">
		<path id="XMLID_148_" class="st1" d="M80.9,68.2c-1.2-0.3-2.3-0.7-3.3-1.3c-1-0.6-2-1.3-2.8-2.1C73.9,64,73.2,63,72.6,62
			c-0.6-1.1-1-2.2-1.3-3.5c-0.3-1.7-0.3-3.3,0.1-4.9c0.2-0.8,0.4-1.6,0.8-2.3c0.3-0.8,0.8-1.5,1.3-2.2c0.8-1,1.7-1.8,2.6-2.5
			c1-0.7,2-1.2,3.2-1.6c1.1-0.4,2.3-0.6,3.5-0.7c0.2,0,0.4,0,0.7,0c1,0,2,0.1,2.9,0.4l6.9,1.6l0.1,1.1c0,0.6,0.1,1.2,0.1,1.9
			c0,0.5,0,1-0.1,1.5L93.3,52l-8.2-1.9c-0.6-0.1-1.1-0.2-1.7-0.2c-0.4,0-0.7,0-1.1,0.1c-0.9,0.1-1.7,0.4-2.5,0.9
			c-0.7,0.4-1.4,1-1.9,1.7c-0.5,0.7-0.9,1.4-1.1,2.3c-0.2,0.9-0.2,1.7,0,2.5c0.2,0.8,0.5,1.6,1,2.3c0.5,0.7,1.1,1.3,1.8,1.9
			c0.7,0.5,1.6,0.9,2.6,1.1l5.7,1.3c0.6,0.2,1.2,0.6,1.5,1.2c0.3,0.6,0.3,1.3,0,1.8c-0.4,0.8-0.8,1.7-1.3,2.5l-0.2,0.4L80.9,68.2z"
			/>
		<path id="XMLID_147_" class="st1" d="M54.9,84c-0.5-1.1-0.9-2.2-1.1-3.4c-0.2-1.2-0.2-2.3-0.1-3.5c0.1-1.2,0.4-2.3,0.9-3.5
			c0.5-1.1,1.1-2.2,1.9-3.2c1.1-1.3,2.4-2.3,3.9-3c0.7-0.4,1.5-0.7,2.3-0.9c0.8-0.2,1.7-0.4,2.6-0.4c0,0,0,0,0,0
			c1.3,0,2.5,0.2,3.6,0.5c1.1,0.3,2.2,0.8,3.3,1.4c1,0.6,2,1.4,2.8,2.3c0.8,0.9,1.5,1.9,2,3l3.1,6.4l-0.3,0.3
			c-0.7,0.6-1.4,1.2-2.1,1.8c-0.4,0.3-0.8,0.5-1.3,0.5l0,0c-0.8,0-1.6-0.5-2-1.2l-2.6-5.3c-0.4-0.9-1-1.6-1.7-2.2
			c-0.7-0.6-1.4-1.1-2.2-1.4c-0.7-0.3-1.5-0.4-2.4-0.4c-1,0-1.8,0.2-2.6,0.6c-0.8,0.4-1.4,0.9-2,1.5c-0.5,0.7-0.9,1.4-1.2,2.2
			c-0.3,0.8-0.4,1.7-0.3,2.6c0.1,0.9,0.3,1.8,0.8,2.7l2.6,5.2c0.3,0.6,0.3,1.3,0,1.9c-0.3,0.6-0.8,1-1.4,1.2
			c-0.9,0.2-1.8,0.4-2.7,0.5L58,90.4L54.9,84z"/>
		<path id="XMLID_146_" class="st1" d="M76.9,40.8c-0.7,0-1.3-0.1-2-0.2c-1.2-0.2-2.4-0.6-3.5-1.1c-1.5-0.8-2.8-1.8-3.8-3.1
			c-0.5-0.6-1-1.3-1.4-2c-0.4-0.8-0.7-1.6-0.9-2.4c-0.3-1.2-0.4-2.4-0.3-3.6c0.1-1.2,0.3-2.4,0.7-3.5c0.4-1.1,0.9-2.2,1.6-3.2
			c0.7-1,1.5-1.9,2.5-2.6l5.6-4.5l0.4,0.3c0.8,0.5,1.5,1.1,2.2,1.7c0.5,0.4,0.8,1,0.8,1.6c0,0.7-0.3,1.3-0.8,1.7l-4.5,3.7
			c-0.8,0.6-1.4,1.3-1.8,2.1c-0.4,0.8-0.7,1.6-0.8,2.5c-0.1,0.8-0.1,1.7,0.1,2.5c0.2,0.8,0.6,1.6,1.1,2.2c0.6,0.7,1.2,1.2,1.9,1.6
			c0.8,0.4,1.6,0.6,2.5,0.7c0.2,0,0.3,0,0.5,0c0.7,0,1.4-0.1,2.1-0.3c0.9-0.3,1.7-0.7,2.5-1.3l4.5-3.6c0.4-0.3,0.9-0.5,1.4-0.5
			c0.8,0,1.6,0.5,1.9,1.2c0.4,0.8,0.8,1.7,1.1,2.5l0.2,0.4L84.9,38c-0.9,0.8-2,1.4-3.1,1.8c-1.1,0.4-2.2,0.7-3.4,0.9
			C77.9,40.8,77.4,40.8,76.9,40.8z"/>
		<path id="XMLID_144_" class="st1" d="M51.6,28.7c-0.8,0-1.6-0.1-2.4-0.2c-0.9-0.2-1.7-0.4-2.5-0.8c-1.1-0.5-2.1-1.2-3-2
			C42.8,24.9,42,24,41.3,23c-0.6-1-1.1-2.1-1.5-3.3c-0.3-1.2-0.5-2.4-0.5-3.5V9.1L39.9,9c0.9-0.3,1.8-0.5,2.7-0.7c0.1,0,0.3,0,0.4,0
			c1.2,0,2.1,1,2.1,2.2v5.8c0,1,0.2,1.9,0.5,2.7c0.3,0.9,0.8,1.6,1.4,2.2c0.6,0.6,1.3,1.1,2.1,1.5c0.8,0.3,1.6,0.5,2.5,0.5
			c0.9,0,1.7-0.2,2.4-0.5c0.8-0.4,1.5-0.9,2.1-1.5c0.6-0.6,1.1-1.3,1.4-2.2c0.3-0.8,0.5-1.8,0.5-2.8v-5.8c0-1.2,1-2.2,2.1-2.2
			c0.1,0,0.3,0,0.4,0c0.9,0.2,1.8,0.4,2.7,0.7l0.4,0.1v7.1c0,1.2-0.2,2.4-0.5,3.5c-0.3,1.1-0.8,2.2-1.4,3.2c-0.6,1-1.4,1.9-2.3,2.7
			c-0.9,0.8-1.9,1.5-3.1,2C54.8,28.4,53.2,28.7,51.6,28.7z"/>
		<path id="XMLID_143_" class="st1" d="M15,69.5c-0.4-0.8-0.9-1.6-1.3-2.5c-0.3-0.6-0.3-1.2,0-1.8c0.3-0.6,0.8-1,1.5-1.2l5.7-1.3
			c1-0.2,1.8-0.6,2.6-1.1c0.8-0.5,1.4-1.2,1.8-1.9c0.5-0.7,0.8-1.5,1-2.3c0.2-0.8,0.2-1.7,0-2.5c-0.2-0.8-0.6-1.6-1.1-2.3
			c-0.5-0.7-1.2-1.2-1.9-1.7c-0.7-0.4-1.6-0.7-2.5-0.9c-0.3-0.1-0.7-0.1-1-0.1c-0.6,0-1.2,0.1-1.8,0.2L9.9,52l-0.1-1.4
			c0-0.5-0.1-1-0.1-1.5c0-0.6,0-1.2,0.1-1.8l0.1-1.1l6.9-1.6c0.9-0.2,1.8-0.3,2.8-0.3c0.3,0,0.5,0,0.8,0c1.2,0.1,2.3,0.3,3.4,0.7
			c1.1,0.4,2.2,0.9,3.2,1.6c1,0.7,1.9,1.6,2.7,2.5c1,1.4,1.7,2.9,2.1,4.5c0.2,0.8,0.3,1.6,0.3,2.4c0,0.9,0,1.7-0.2,2.6
			c-0.3,1.2-0.7,2.3-1.3,3.4c-0.6,1-1.3,2-2.1,2.9c-0.9,0.9-1.8,1.6-2.9,2.2c-1.1,0.6-2.2,1-3.3,1.3l-7,1.6L15,69.5z"/>
		<path id="XMLID_142_" class="st1" d="M44.6,90.4c-0.9-0.2-1.8-0.3-2.7-0.5c-0.6-0.1-1.1-0.6-1.4-1.2c-0.3-0.6-0.3-1.3,0-1.9
			l2.6-5.2c0.4-0.9,0.7-1.8,0.7-2.7c0.1-0.9,0-1.8-0.3-2.6c-0.2-0.8-0.7-1.6-1.2-2.2c-0.5-0.6-1.2-1.2-2-1.6
			c-0.8-0.4-1.6-0.6-2.4-0.6c0,0,0,0,0,0c-0.9,0-1.7,0.1-2.5,0.4c-0.8,0.3-1.5,0.8-2.2,1.4c-0.7,0.6-1.2,1.4-1.7,2.3l-2.6,5.3
			c-0.4,0.7-1.1,1.2-2,1.2c-0.5,0-0.9-0.2-1.3-0.5c-0.7-0.6-1.4-1.2-2.1-1.8l-0.3-0.3l3.2-6.5c0.5-1.1,1.2-2.1,2-3
			c0.8-0.9,1.7-1.6,2.7-2.2c1-0.6,2.1-1.1,3.3-1.5c1.1-0.3,2.3-0.5,3.5-0.5l0.2,0c1.7,0.1,3.3,0.5,4.7,1.2c0.7,0.4,1.5,0.8,2.1,1.3
			c0.7,0.5,1.3,1.1,1.9,1.8c0.8,1,1.4,2,1.8,3.1c0.4,1.1,0.7,2.3,0.9,3.5c0.1,1.2,0.1,2.4-0.1,3.6c-0.2,1.2-0.6,2.3-1.1,3.4
			l-3.1,6.4L44.6,90.4z"/>
		<path id="XMLID_218_" class="st1" d="M26.2,40.9c-0.5,0-1,0-1.5-0.1c-1.2-0.1-2.4-0.4-3.5-0.9c-1.1-0.5-2.1-1.1-3-1.9l-5.5-4.4
			l0.2-0.4c0.4-0.9,0.7-1.7,1.1-2.5c0.4-0.7,1.1-1.2,1.9-1.2c0.5,0,1,0.2,1.4,0.5l4.5,3.6c0.8,0.6,1.6,1.1,2.5,1.3
			c0.7,0.2,1.4,0.3,2.1,0.3c0.2,0,0.3,0,0.5,0c0.8-0.1,1.7-0.3,2.4-0.7c0.7-0.4,1.4-0.9,2-1.6c0.6-0.7,0.9-1.4,1.1-2.2
			c0.2-0.8,0.3-1.7,0.1-2.5c-0.1-0.8-0.4-1.7-0.8-2.5c-0.4-0.8-1.1-1.5-1.8-2.1l-4.5-3.7c-0.5-0.4-0.8-1-0.8-1.7
			c0-0.6,0.3-1.2,0.8-1.7c0.7-0.6,1.5-1.1,2.2-1.7l0.4-0.3l5.6,4.5c0.9,0.8,1.8,1.6,2.4,2.6c0.7,1,1.2,2,1.6,3.1
			c0.4,1.1,0.6,2.3,0.7,3.5c0.1,1.2,0,2.5-0.4,3.7c-0.5,1.6-1.2,3.1-2.2,4.4c-0.5,0.6-1.1,1.2-1.7,1.8c-0.7,0.6-1.4,1-2.2,1.4
			c-1.1,0.5-2.3,0.9-3.5,1.1C27.6,40.8,26.9,40.9,26.2,40.9z"/>
	</g>
</g>
</svg>
