<?xml version="1.0" encoding="UTF-8"?>
<svg width="19px" height="20px" viewBox="0 0 19 20" version="1.1" xmlns="http://www.w3.org/2000/svg" xmlns:xlink="http://www.w3.org/1999/xlink">
    <!-- Generator: Sketch 49.1 (51147) - http://www.bohemiancoding.com/sketch -->
    <title>Fill 1</title>
    <desc>Created with Sketch.</desc>
    <defs></defs>
    <g id="Page-1" stroke="none" stroke-width="1" fill="none" fill-rule="evenodd">
        <path d="M2.26261142,10.9522736 L10.6888959,2.29693821 L10.6888959,10.9522736 L2.26261142,10.9522736 Z M13.7212087,9.28024891 L17.4875141,9.28024891 L8.69139054,18.3155139 L2.26261142,11.7119546 L8.32162082,11.7119546 L8.32162082,15.0791153 C8.32162082,15.2888974 8.48723023,15.4589736 8.69139054,15.4589736 C8.89565486,15.4589736 9.06119494,15.2888974 9.06119494,15.0791153 L9.06119494,11.7119546 L11.0587003,11.7119546 C11.2628953,11.7119546 11.42847,11.5418784 11.42847,11.3320963 L11.42847,2.29679576 L17.4875141,8.52056789 L13.7212087,8.52056789 C13.5170484,8.52056789 13.351439,8.69060853 13.351439,8.9003906 C13.351439,9.11020828 13.5170137,9.28024891 13.7212087,9.28024891 Z M18.6427584,9.16793307 C18.6509401,9.15949336 18.6587404,9.15069754 18.6660207,9.14151 C18.6682048,9.13887482 18.6699036,9.13602597 18.6720183,9.13335517 C18.6773572,9.12623305 18.6827654,9.11911093 18.6876189,9.1116327 C18.6892137,9.10924679 18.6904964,9.10675405 18.6919525,9.10433253 C18.697014,9.09628453 18.7019369,9.0881297 18.7063397,9.07968999 C18.7071717,9.0780519 18.7078304,9.07634259 18.7086971,9.0746689 C18.7133773,9.06533892 18.7178495,9.05583089 18.7218363,9.04603797 C18.7222524,9.04493404 18.7226337,9.0437945 18.7230497,9.04269057 C18.7270712,9.0323635 18.73085,9.02189398 18.7340395,9.01113958 C18.7343862,9.00989321 18.7346289,9.00857561 18.7349409,9.00732924 C18.7379917,8.9967885 18.7407304,8.98610532 18.7428105,8.97520848 C18.7435039,8.97203913 18.7436772,8.96879857 18.7442666,8.96562923 C18.745792,8.95658413 18.7472827,8.94753904 18.7482187,8.93831589 C18.7494321,8.92578096 18.7500215,8.9131392 18.7500215,8.9003906 C18.7500215,8.88767761 18.7494321,8.87503585 18.7482187,8.86250092 C18.7472827,8.85324216 18.745792,8.84419707 18.7442666,8.83518758 C18.7436772,8.83201824 18.7434692,8.82881328 18.7428105,8.82564394 C18.7407304,8.8147471 18.7379917,8.80406391 18.7349409,8.79352318 C18.7345595,8.7922768 18.7343515,8.79099482 18.7340395,8.78971284 C18.73085,8.77899405 18.7270712,8.76852453 18.7230497,8.75823307 C18.722599,8.75709353 18.7222524,8.75591838 18.7218363,8.75481445 C18.7179535,8.74509275 18.713412,8.73565594 18.7087665,8.72639719 C18.7078998,8.72465227 18.7071717,8.72287174 18.7063397,8.72116243 C18.7020062,8.71282955 18.6971527,8.70485277 18.6922298,8.69691161 C18.6906351,8.69438325 18.689283,8.69167685 18.6876189,8.68918411 C18.6830081,8.68202637 18.6777732,8.67526036 18.6727463,8.66849434 C18.6704236,8.66546744 18.6684128,8.66222688 18.6660207,8.6592712 C18.6600232,8.65179297 18.6535056,8.64474207 18.6470226,8.63772678 C18.6451852,8.63580381 18.6435905,8.63370278 18.6417877,8.63181542 L11.3202016,1.11121192 C11.3151401,1.10601277 11.3097318,1.10145461 11.3045316,1.09661157 C11.3008221,1.09322856 11.2973207,1.08963189 11.2934725,1.08642694 C11.2876136,1.08147706 11.2814773,1.07706135 11.2754104,1.0725388 C11.2717356,1.06976117 11.2681995,1.0668411 11.2643513,1.06420592 C11.2582151,1.06000387 11.2518708,1.05626475 11.2455959,1.05249003 C11.2414704,1.04996168 11.2374836,1.0473621 11.2332194,1.04504741 C11.2272565,1.04170002 11.2210162,1.03888678 11.2148106,1.0359311 C11.2100611,1.03361641 11.2052769,1.03112367 11.200354,1.02902264 C11.1945991,1.02656551 11.1887402,1.02457132 11.1827773,1.02243468 C11.1772304,1.02036927 11.1717182,1.01819702 11.166102,1.0164521 C11.1604164,1.01467157 11.1546962,1.01338959 11.148976,1.01192955 C11.143013,1.01036269 11.1370155,1.00861777 11.1309486,1.0073714 C11.1246736,1.0060538 11.118364,1.00534159 11.1120891,1.0043801 C11.1064036,1.00352545 11.100822,1.00245713 11.0950324,1.00185175 C11.084736,1.00081904 11.0743009,1.00039172 11.0639005,1.00024927 C11.0621671,1.00024927 11.0604337,1 11.0585963,1 C11.0559615,1 11.0533961,1.0003205 11.0507266,1.00039172 C11.0412622,1.00060538 11.0317978,1.00092588 11.0224028,1.00188736 C11.0156772,1.00252835 11.0091943,1.00377472 11.0026073,1.00480743 C10.9973724,1.00566209 10.9919989,1.00626747 10.98666,1.00733578 C10.9795184,1.00876021 10.9724808,1.01079001 10.9655125,1.01264176 C10.960867,1.01388814 10.9562561,1.01488523 10.9517146,1.01627405 C10.9447463,1.01844629 10.9380554,1.02104587 10.9313298,1.02360983 C10.9267189,1.02531914 10.9220734,1.02688601 10.9175319,1.02877337 C10.9110836,1.03151538 10.904878,1.03472034 10.8986031,1.03778285 C10.8939922,1.04006193 10.8892774,1.04216296 10.8847359,1.0446557 C10.8785303,1.04803871 10.872602,1.05192026 10.8666045,1.05565937 C10.8623056,1.05836578 10.8579028,1.06089413 10.8536733,1.06377859 C10.846705,1.0685148 10.8400834,1.07374956 10.8335311,1.07894871 C10.8305497,1.08129901 10.8274642,1.08340004 10.8245521,1.08582156 C10.8148103,1.09404761 10.8054153,1.10270098 10.7965403,1.11188852 L1.10837241,11.0634855 C1.10799106,11.0638772 1.10774839,11.064269 1.10743638,11.0645538 C1.09925471,11.0729936 1.09145439,11.0817894 1.08410476,11.0910125 C1.08199001,11.0935765 1.0802566,11.0964253 1.07828052,11.0990605 C1.0728723,11.1062183 1.06742941,11.1133404 1.06250655,11.1208898 C1.06098115,11.1232045 1.05976777,11.125626 1.05834638,11.1279407 C1.05328484,11.1361312 1.0483273,11.1443216 1.04378578,11.1528325 C1.04302309,11.1544706 1.04229506,11.1562155 1.04146302,11.1578536 C1.03678283,11.1671836 1.03224131,11.1766916 1.02835849,11.1864846 C1.02783847,11.1875885 1.02752645,11.188728 1.02711044,11.189832 C1.02308894,11.200159 1.01931012,11.2106642 1.01615532,11.221383 C1.01577398,11.2226293 1.0155313,11.2239113 1.01521929,11.2251577 C1.0121685,11.235734 1.00942972,11.2464172 1.00734963,11.2573853 C1.00676028,11.260341 1.00648293,11.2633679 1.00596291,11.2663591 C1.00436818,11.2755823 1.00287745,11.2847698 1.00194141,11.2942066 C1.00069336,11.306706 1,11.3193477 1,11.3320963 C1,11.3448093 1.00069336,11.3574511 1.00190674,11.369986 C1.00284278,11.3794228 1.00433351,11.3886103 1.00592824,11.3977979 C1.00644826,11.4007892 1.00676028,11.4038517 1.00731496,11.4068074 C1.00939505,11.4177398 1.01213383,11.428423 1.01518462,11.4389994 C1.0155313,11.4402457 1.01577398,11.4415277 1.01608599,11.4427741 C1.01927545,11.4534929 1.02305427,11.4639624 1.02707577,11.4742539 C1.02752645,11.4753578 1.02783847,11.4765329 1.02828915,11.4776725 C1.03217198,11.4873942 1.03667883,11.496831 1.04135902,11.5060897 C1.04222572,11.5078347 1.04288441,11.5096152 1.04378578,11.5113601 C1.04811929,11.5197642 1.05304216,11.5277766 1.05803436,11.535789 C1.05955976,11.5382817 1.06084248,11.5409169 1.06243721,11.543374 C1.06715207,11.5504962 1.07235228,11.5572978 1.07744849,11.564135 C1.07966724,11.5671263 1.08171266,11.5703313 1.08410476,11.5732513 C1.09010234,11.5807296 1.0965506,11.5878161 1.10310287,11.5947601 C1.10494027,11.5966831 1.106431,11.5988197 1.10833775,11.6006715 L7.79861819,18.4728415 L6.17705349,18.4728415 C5.97282384,18.4728415 5.80724909,18.6428821 5.80724909,18.8526998 C5.80724909,19.0624463 5.97282384,19.2325581 6.17705349,19.2325581 L13.5728987,19.2325581 C13.7771283,19.2325581 13.9427031,19.0624463 13.9427031,18.8526998 C13.9427031,18.6428821 13.7771283,18.4728415 13.5728987,18.4728415 L9.58419757,18.4728415 L18.6418224,9.16896578 C18.6420998,9.16864528 18.6423771,9.16821795 18.6427584,9.16793307 Z" id="Fill-1" stroke="#979797" stroke-width="0.2" fill="#9B9B9B"></path>
    </g>
</svg>