<?xml version="1.0" encoding="UTF-8"?>
<svg width="18px" height="18px" viewBox="0 0 18 18" version="1.1" xmlns="http://www.w3.org/2000/svg" xmlns:xlink="http://www.w3.org/1999/xlink">
    <!-- Generator: Sketch 49.1 (51147) - http://www.bohemiancoding.com/sketch -->
    <title>bell</title>
    <desc>Created with Sketch.</desc>
    <defs></defs>
    <g id="Page-1" stroke="none" stroke-width="1" fill="none" fill-rule="evenodd">
        <g id="bell" transform="translate(10.428203, 8.794229) rotate(-330.000000) translate(-10.428203, -8.794229) translate(2.428203, -0.205771)" fill="#9B9B9B">
            <path d="M15.2255904,14.2434707 L0.430421296,14.2434707 C0.28351617,14.2434707 0.148191886,14.1646566 0.0757043934,14.0364095 C0.00321690057,13.9090202 0.00525427093,13.7521427 0.0808514343,13.6256113 L2.09409504,10.2719924 C2.09452396,9.53231977 2.09806255,5.42230037 2.10846386,5.2845098 C2.31627564,2.32174437 4.80915912,1.70530257e-13 7.784256,1.70530257e-13 C10.7342611,1.70530257e-13 13.2255361,2.30104898 13.4565095,5.23904427 C13.4676615,5.38948798 13.4728085,9.51387621 13.4736663,10.2679177 L15.5713,13.6191775 C15.650114,13.7449583 15.6540816,13.9034443 15.5824519,14.0331926 C15.5102861,14.1630481 15.3737823,14.2434707 15.2255904,14.2434707 L15.2255904,14.2434707 Z M1.1505781,13.4280936 L14.4895635,13.4280936 L12.7203755,10.6015103 C12.6797353,10.5362072 12.6582893,10.4613607 12.6582893,10.3849056 C12.6582893,9.98525937 12.6522844,5.50486749 12.6431698,5.29469665 C12.4460811,2.7865865 10.3114531,0.815162604 7.784256,0.815162604 C5.23561291,0.815162604 3.09969816,2.804065 2.92137464,5.34327185 C2.91343962,5.54550766 2.90947211,10.1308777 2.90947211,10.3849056 C2.90947211,10.4590016 2.88952732,10.5313819 2.85135344,10.5950765 L1.1505781,13.4280936 L1.1505781,13.4280936 Z" id="Shape" stroke="#9B9B9B" stroke-width="0.35"></path>
            <path d="M7.82800585,17.3717992 C6.6368948,17.3717992 5.66753542,16.4027615 5.66753542,15.2116505 C5.66753542,14.9863602 5.84982646,14.803962 6.07522396,14.803962 L9.58089497,14.803962 C9.80618524,14.803962 9.9885835,14.986253 9.9885835,15.2116505 C9.9885835,16.4027615 9.0191169,17.3717992 7.82800585,17.3717992 L7.82800585,17.3717992 Z M6.5461782,15.619339 C6.71935468,16.1623518 7.22848281,16.5565294 7.82811308,16.5565294 C8.42774334,16.5565294 8.93687147,16.1623518 9.11004795,15.619339 L6.5461782,15.619339 L6.5461782,15.619339 Z" id="Shape"></path>
        </g>
    </g>
</svg>