<?xml version="1.0" encoding="UTF-8"?>
<svg width="22px" height="18px" viewBox="0 0 22 18" version="1.1" xmlns="http://www.w3.org/2000/svg" xmlns:xlink="http://www.w3.org/1999/xlink">
    <!-- Generator: Sketch 49.1 (51147) - http://www.bohemiancoding.com/sketch -->
    <title>Fill 92</title>
    <desc>Created with Sketch.</desc>
    <defs></defs>
    <g id="Page-1" stroke="none" stroke-width="1" fill="none" fill-rule="evenodd">
        <path d="M11.2421537,9.42902141 C13.5665643,9.42902141 15.4578776,7.53811256 15.4578776,5.21370193 C15.4578776,2.89050447 13.5665643,1 11.2421537,1 C8.91895625,1 7.02885617,2.89050447 7.02885617,5.21370193 C7.02885617,7.53811256 8.91895625,9.42902141 11.2421537,9.42902141 L11.2421537,9.42902141 Z M11.2421537,1.60657897 C13.2321371,1.60657897 14.8512986,3.22493167 14.8512986,5.21370193 C14.8512986,7.20368535 13.2321371,8.82244244 11.2421537,8.82244244 C9.25338346,8.82244244 7.63543514,7.20368535 7.63543514,5.21370193 C7.63543514,3.22493167 9.25338346,1.60657897 11.2421537,1.60657897 L11.2421537,1.60657897 Z M17.5995057,8.00153889 C17.0228513,8.00153889 16.4825917,7.80824239 16.0365539,7.44267747 C15.9075548,7.33632395 15.7158758,7.35492571 15.6099267,7.48473361 C15.5035732,7.61413712 15.5225793,7.80541169 15.6519829,7.9117652 C16.1995215,8.36063364 16.8910215,8.60811787 17.5995057,8.60811787 C19.2983312,8.60811787 20.6801182,7.22673535 20.6801182,5.52871861 C20.6801182,3.83110626 19.2983312,2.45012813 17.5995057,2.45012813 C16.8902127,2.45012813 16.1987127,2.69720797 15.6515785,3.14607641 C15.5225793,3.25202553 15.5035732,3.4433001 15.6099267,3.57270362 C15.7158758,3.70210713 15.9075548,3.72111327 16.0369583,3.61516415 C16.4753127,3.25485624 17.0305347,3.0567071 17.5995057,3.0567071 C18.9634997,3.0567071 20.0735392,4.16553347 20.0735392,5.52871861 C20.0735392,6.89230814 18.9634997,8.00153889 17.5995057,8.00153889 L17.5995057,8.00153889 Z M15.6030521,11.6300943 C14.5075705,9.8042916 12.2078274,10.0327697 12.1427213,10.0424749 L10.269201,10.0424749 C10.1867063,10.0408574 8.33623605,9.99233108 7.24884214,11.5552829 C6.64590265,12.4198601 5.76029734,15.7374427 5.44892014,17.1180165 C5.41171663,17.2817928 5.51443067,17.4439516 5.6778026,17.4807507 C5.84117454,17.5183586 6.00333332,17.4152402 6.04013244,17.2514638 C6.36768509,15.8017401 7.23145355,12.6410593 7.74664129,11.9022461 C8.64114308,10.6162987 10.235637,10.6518846 10.258687,10.6490539 L12.1750722,10.6474364 C12.1952915,10.6450101 14.2014503,10.4521179 15.0915039,11.9560294 C15.0983784,11.9677566 15.1060618,11.9790794 15.1145539,11.9899978 C15.6608793,12.6794759 16.5756004,15.782734 16.912454,17.252677 C16.9448048,17.3929989 17.0697601,17.4880296 17.2080601,17.4880296 C17.2303013,17.4880296 17.252947,17.4856033 17.275997,17.4807507 C17.4389645,17.4431428 17.5412742,17.2805796 17.5036663,17.1168033 C17.2391978,15.9638989 16.3018311,12.5395584 15.6030521,11.6300943 L15.6030521,11.6300943 Z M4.88399292,8.60811787 C5.59288155,8.60811787 6.28519035,8.36063364 6.83272897,7.9117652 C6.96213248,7.80541169 6.98113862,7.61413712 6.87478511,7.48473361 C6.7684316,7.35492571 6.57756141,7.33632395 6.4481579,7.44267747 C6.00212016,7.80824239 5.4614561,8.00153889 4.88399292,8.00153889 C3.519999,8.00153889 2.41036387,6.89230814 2.41036387,5.52871861 C2.41036387,4.16553347 3.519999,3.0567071 4.88399292,3.0567071 C5.4614561,3.0567071 6.00171578,3.24959922 6.44654036,3.61516415 C6.57634826,3.72111327 6.76762283,3.70210713 6.87357195,3.57270362 C6.97992547,3.4433001 6.96091933,3.25202553 6.83151581,3.14607641 C6.28478596,2.69720797 5.59288155,2.45012813 4.88399292,2.45012813 C3.1855718,2.45012813 1.8037849,3.83110626 1.8037849,5.52871861 C1.8037849,7.22673535 3.1855718,8.60811787 4.88399292,8.60811787 L4.88399292,8.60811787 Z M21.4775673,12.8679198 C21.1544629,11.4105127 20.8281234,10.4383688 20.5078497,9.97777319 C19.7112093,8.83053016 18.3455979,8.86611612 18.2990935,8.86732928 L16.9953531,8.86935121 C16.9294382,8.86045472 15.36406,8.7051705 14.5253635,9.89204336 C14.4287153,10.0287258 14.4614705,10.2183828 14.598153,10.3146267 C14.7344311,10.4108706 14.9240881,10.3789241 15.0207363,10.2418372 C15.6503653,9.35016614 16.9169022,9.46986439 16.9621934,9.47390825 L18.3100119,9.47390825 C18.3205259,9.46622492 19.3994277,9.44479246 20.0100506,10.3239276 C20.1988988,10.595675 20.5042102,11.2807048 20.8851418,12.9989409 C20.9166839,13.1400716 21.0420436,13.2367198 21.1811524,13.2367198 C21.2029892,13.2367198 21.2248261,13.2342935 21.2466629,13.2294409 C21.4104392,13.1930461 21.5135577,13.0312917 21.4775673,12.8679198 L21.4775673,12.8679198 Z M7.53676496,10.3558741 C7.62249479,10.5006443 7.80810796,10.5483618 7.95206937,10.4622276 C8.09643516,10.3769022 8.14415271,10.1908846 8.05882727,10.0469232 C7.25652548,8.69263454 5.56053067,8.86126349 5.52170962,8.86732928 L4.19613237,8.86732928 C4.14113587,8.86732928 2.7730981,8.829317 1.97605333,9.97777319 C1.65416208,10.4407951 1.32822698,11.4133434 1.00714451,12.8679198 C0.97115416,13.0316961 1.07467697,13.1934505 1.23804891,13.2294409 C1.26029014,13.2342935 1.28212698,13.2367198 1.30355944,13.2367198 C1.44266821,13.2367198 1.56843226,13.1400716 1.59956998,12.9985365 C1.89477174,11.6604233 2.20534018,10.7105206 2.47425685,10.3239276 C3.0788139,9.4524758 4.12900429,9.47390825 4.18561833,9.47390825 L5.55365611,9.47229071 C5.56780962,9.47067316 6.93584739,9.34126965 7.53676496,10.3558741 L7.53676496,10.3558741 Z" id="Fill-92" stroke="#9B9B9B" stroke-width="0.5" fill="#9B9B9B"></path>
    </g>
</svg>