<svg version="1.1" id="el_QqWl-zf4_" xmlns="http://www.w3.org/2000/svg" xmlns:xlink="http://www.w3.org/1999/xlink" x="0px" y="0px" viewBox="0 0 500 500" style="enable-background:new 0 0 500 500;" xml:space="preserve"><style>@-webkit-keyframes el_ITWomxAkJF_fTjqLxKxa_Animation{0%{-webkit-transform: scale(1.05, 1.05);transform: scale(1.05, 1.05);}6.67%{-webkit-transform: scale(1, 1);transform: scale(1, 1);}93.33%{-webkit-transform: scale(1, 1);transform: scale(1, 1);}100%{-webkit-transform: scale(1.05, 1.05);transform: scale(1.05, 1.05);}}@keyframes el_ITWomxAkJF_fTjqLxKxa_Animation{0%{-webkit-transform: scale(1.05, 1.05);transform: scale(1.05, 1.05);}6.67%{-webkit-transform: scale(1, 1);transform: scale(1, 1);}93.33%{-webkit-transform: scale(1, 1);transform: scale(1, 1);}100%{-webkit-transform: scale(1.05, 1.05);transform: scale(1.05, 1.05);}}@-webkit-keyframes el_hQ1Dx7J0iW_mDOo0e5rs_Animation{80%{-webkit-transform: scale(1, 1);transform: scale(1, 1);}86.67%{-webkit-transform: scale(1.05, 1.05);transform: scale(1.05, 1.05);}93.33%{-webkit-transform: scale(1, 1);transform: scale(1, 1);}0%{-webkit-transform: scale(1, 1);transform: scale(1, 1);}100%{-webkit-transform: scale(1, 1);transform: scale(1, 1);}}@keyframes el_hQ1Dx7J0iW_mDOo0e5rs_Animation{80%{-webkit-transform: scale(1, 1);transform: scale(1, 1);}86.67%{-webkit-transform: scale(1.05, 1.05);transform: scale(1.05, 1.05);}93.33%{-webkit-transform: scale(1, 1);transform: scale(1, 1);}0%{-webkit-transform: scale(1, 1);transform: scale(1, 1);}100%{-webkit-transform: scale(1, 1);transform: scale(1, 1);}}@-webkit-keyframes el_Ra3Ak9C4Nd_oolo4XXZ3_Animation{66.67%{-webkit-transform: scale(1, 1);transform: scale(1, 1);}73.33%{-webkit-transform: scale(1.05, 1.05);transform: scale(1.05, 1.05);}80%{-webkit-transform: scale(1, 1);transform: scale(1, 1);}0%{-webkit-transform: scale(1, 1);transform: scale(1, 1);}100%{-webkit-transform: scale(1, 1);transform: scale(1, 1);}}@keyframes el_Ra3Ak9C4Nd_oolo4XXZ3_Animation{66.67%{-webkit-transform: scale(1, 1);transform: scale(1, 1);}73.33%{-webkit-transform: scale(1.05, 1.05);transform: scale(1.05, 1.05);}80%{-webkit-transform: scale(1, 1);transform: scale(1, 1);}0%{-webkit-transform: scale(1, 1);transform: scale(1, 1);}100%{-webkit-transform: scale(1, 1);transform: scale(1, 1);}}@-webkit-keyframes el_g6YwgMlKoV_DAOIkFuuU_Animation{53.33%{-webkit-transform: scale(1, 1);transform: scale(1, 1);}60%{-webkit-transform: scale(1.05, 1.05);transform: scale(1.05, 1.05);}66.67%{-webkit-transform: scale(1, 1);transform: scale(1, 1);}0%{-webkit-transform: scale(1, 1);transform: scale(1, 1);}100%{-webkit-transform: scale(1, 1);transform: scale(1, 1);}}@keyframes el_g6YwgMlKoV_DAOIkFuuU_Animation{53.33%{-webkit-transform: scale(1, 1);transform: scale(1, 1);}60%{-webkit-transform: scale(1.05, 1.05);transform: scale(1.05, 1.05);}66.67%{-webkit-transform: scale(1, 1);transform: scale(1, 1);}0%{-webkit-transform: scale(1, 1);transform: scale(1, 1);}100%{-webkit-transform: scale(1, 1);transform: scale(1, 1);}}@-webkit-keyframes el_yRK17i3KX5_Lig13LCR8_Animation{40%{-webkit-transform: scale(1, 1);transform: scale(1, 1);}46.67%{-webkit-transform: scale(1.05, 1.05);transform: scale(1.05, 1.05);}53.33%{-webkit-transform: scale(1, 1);transform: scale(1, 1);}0%{-webkit-transform: scale(1, 1);transform: scale(1, 1);}100%{-webkit-transform: scale(1, 1);transform: scale(1, 1);}}@keyframes el_yRK17i3KX5_Lig13LCR8_Animation{40%{-webkit-transform: scale(1, 1);transform: scale(1, 1);}46.67%{-webkit-transform: scale(1.05, 1.05);transform: scale(1.05, 1.05);}53.33%{-webkit-transform: scale(1, 1);transform: scale(1, 1);}0%{-webkit-transform: scale(1, 1);transform: scale(1, 1);}100%{-webkit-transform: scale(1, 1);transform: scale(1, 1);}}@-webkit-keyframes el_48OroZXUeQ_UkWcpHbVI_Animation{26.67%{-webkit-transform: scale(1, 1);transform: scale(1, 1);}33.33%{-webkit-transform: scale(1.05, 1.05);transform: scale(1.05, 1.05);}40%{-webkit-transform: scale(1, 1);transform: scale(1, 1);}0%{-webkit-transform: scale(1, 1);transform: scale(1, 1);}100%{-webkit-transform: scale(1, 1);transform: scale(1, 1);}}@keyframes el_48OroZXUeQ_UkWcpHbVI_Animation{26.67%{-webkit-transform: scale(1, 1);transform: scale(1, 1);}33.33%{-webkit-transform: scale(1.05, 1.05);transform: scale(1.05, 1.05);}40%{-webkit-transform: scale(1, 1);transform: scale(1, 1);}0%{-webkit-transform: scale(1, 1);transform: scale(1, 1);}100%{-webkit-transform: scale(1, 1);transform: scale(1, 1);}}@-webkit-keyframes el_SPNbJDIeUe_iGPVfwnoF_Animation{6.67%{-webkit-transform: scale(1, 1);transform: scale(1, 1);}13.33%{-webkit-transform: scale(1.05, 1.05);transform: scale(1.05, 1.05);}20%{-webkit-transform: scale(1, 1);transform: scale(1, 1);}0%{-webkit-transform: scale(1, 1);transform: scale(1, 1);}100%{-webkit-transform: scale(1, 1);transform: scale(1, 1);}}@keyframes el_SPNbJDIeUe_iGPVfwnoF_Animation{6.67%{-webkit-transform: scale(1, 1);transform: scale(1, 1);}13.33%{-webkit-transform: scale(1.05, 1.05);transform: scale(1.05, 1.05);}20%{-webkit-transform: scale(1, 1);transform: scale(1, 1);}0%{-webkit-transform: scale(1, 1);transform: scale(1, 1);}100%{-webkit-transform: scale(1, 1);transform: scale(1, 1);}}@-webkit-keyframes el_ITWomxAkJF_Animation{0%{opacity: 1;}13.33%{opacity: 0.4;}86.67%{opacity: 0.4;}100%{opacity: 1;}}@keyframes el_ITWomxAkJF_Animation{0%{opacity: 1;}13.33%{opacity: 0.4;}86.67%{opacity: 0.4;}100%{opacity: 1;}}@-webkit-keyframes el_hQ1Dx7J0iW_Animation{73.33%{opacity: 0.4;}86.67%{opacity: 1;}100%{opacity: 0.4;}0%{opacity: 0.4;}}@keyframes el_hQ1Dx7J0iW_Animation{73.33%{opacity: 0.4;}86.67%{opacity: 1;}100%{opacity: 0.4;}0%{opacity: 0.4;}}@-webkit-keyframes el_Ra3Ak9C4Nd_Animation{60%{opacity: 0.4;}73.33%{opacity: 1;}86.67%{opacity: 0.4;}0%{opacity: 0.4;}100%{opacity: 0.4;}}@keyframes el_Ra3Ak9C4Nd_Animation{60%{opacity: 0.4;}73.33%{opacity: 1;}86.67%{opacity: 0.4;}0%{opacity: 0.4;}100%{opacity: 0.4;}}@-webkit-keyframes el_g6YwgMlKoV_Animation{46.67%{opacity: 0.4;}60%{opacity: 1;}73.33%{opacity: 0.4;}0%{opacity: 0.4;}100%{opacity: 0.4;}}@keyframes el_g6YwgMlKoV_Animation{46.67%{opacity: 0.4;}60%{opacity: 1;}73.33%{opacity: 0.4;}0%{opacity: 0.4;}100%{opacity: 0.4;}}@-webkit-keyframes el_yRK17i3KX5_Animation{33.33%{opacity: 0.4;}46.67%{opacity: 1;}60%{opacity: 0.4;}0%{opacity: 0.4;}100%{opacity: 0.4;}}@keyframes el_yRK17i3KX5_Animation{33.33%{opacity: 0.4;}46.67%{opacity: 1;}60%{opacity: 0.4;}0%{opacity: 0.4;}100%{opacity: 0.4;}}@-webkit-keyframes el_48OroZXUeQ_Animation{20%{opacity: 0.4;}33.33%{opacity: 1;}46.67%{opacity: 0.4;}0%{opacity: 0.4;}100%{opacity: 0.4;}}@keyframes el_48OroZXUeQ_Animation{20%{opacity: 0.4;}33.33%{opacity: 1;}46.67%{opacity: 0.4;}0%{opacity: 0.4;}100%{opacity: 0.4;}}@-webkit-keyframes el_SPNbJDIeUe_Animation{0%{opacity: 0.4;}13.33%{opacity: 1;}26.67%{opacity: 0.4;}100%{opacity: 0.4;}}@keyframes el_SPNbJDIeUe_Animation{0%{opacity: 0.4;}13.33%{opacity: 1;}26.67%{opacity: 0.4;}100%{opacity: 0.4;}}#el_QqWl-zf4_ *{-webkit-animation-duration: 1.5s;animation-duration: 1.5s;-webkit-animation-iteration-count: infinite;animation-iteration-count: infinite;-webkit-animation-timing-function: cubic-bezier(0, 0, 1, 1);animation-timing-function: cubic-bezier(0, 0, 1, 1);}#el_yRK17i3KX5{fill: #F16722;-webkit-animation-name: el_yRK17i3KX5_Animation;animation-name: el_yRK17i3KX5_Animation;opacity: 0.4;-webkit-animation-timing-function: cubic-bezier(0.42, 0, 0.58, 1);animation-timing-function: cubic-bezier(0.42, 0, 0.58, 1);}#el_g6YwgMlKoV{fill: #F16722;-webkit-animation-name: el_g6YwgMlKoV_Animation;animation-name: el_g6YwgMlKoV_Animation;opacity: 0.4;-webkit-animation-timing-function: cubic-bezier(0.42, 0, 0.58, 1);animation-timing-function: cubic-bezier(0.42, 0, 0.58, 1);}#el_48OroZXUeQ{fill: #F16722;-webkit-animation-name: el_48OroZXUeQ_Animation;animation-name: el_48OroZXUeQ_Animation;opacity: 0.4;-webkit-animation-timing-function: cubic-bezier(0.42, 0, 0.58, 1);animation-timing-function: cubic-bezier(0.42, 0, 0.58, 1);}#el_SPNbJDIeUe{fill: #F16722;opacity: 0.4;-webkit-animation-name: el_SPNbJDIeUe_Animation;animation-name: el_SPNbJDIeUe_Animation;-webkit-animation-timing-function: cubic-bezier(0.42, 0, 0.58, 1);animation-timing-function: cubic-bezier(0.42, 0, 0.58, 1);}#el_hQ1Dx7J0iW{fill: #F16722;-webkit-animation-name: el_hQ1Dx7J0iW_Animation;animation-name: el_hQ1Dx7J0iW_Animation;opacity: 0.4;-webkit-animation-timing-function: cubic-bezier(0.42, 0, 0.58, 1);animation-timing-function: cubic-bezier(0.42, 0, 0.58, 1);}#el_Ra3Ak9C4Nd{fill: #F16722;-webkit-animation-name: el_Ra3Ak9C4Nd_Animation;animation-name: el_Ra3Ak9C4Nd_Animation;opacity: 0.4;-webkit-animation-timing-function: cubic-bezier(0.42, 0, 0.58, 1);animation-timing-function: cubic-bezier(0.42, 0, 0.58, 1);}#el_ITWomxAkJF{fill: #F16722;-webkit-animation-name: el_ITWomxAkJF_Animation;animation-name: el_ITWomxAkJF_Animation;opacity: 0.4;-webkit-animation-timing-function: cubic-bezier(0.42, 0, 0.58, 1);animation-timing-function: cubic-bezier(0.42, 0, 0.58, 1);}#el_SPNbJDIeUe_iGPVfwnoF{-webkit-animation-name: el_SPNbJDIeUe_iGPVfwnoF_Animation;animation-name: el_SPNbJDIeUe_iGPVfwnoF_Animation;-webkit-transform-origin: 50% 50%;transform-origin: 50% 50%;transform-box: fill-box;-webkit-animation-timing-function: cubic-bezier(0.42, 0, 0.58, 1);animation-timing-function: cubic-bezier(0.42, 0, 0.58, 1);}#el_48OroZXUeQ_UkWcpHbVI{-webkit-animation-name: el_48OroZXUeQ_UkWcpHbVI_Animation;animation-name: el_48OroZXUeQ_UkWcpHbVI_Animation;-webkit-transform-origin: 50% 50%;transform-origin: 50% 50%;transform-box: fill-box;-webkit-animation-timing-function: cubic-bezier(0.42, 0, 0.58, 1);animation-timing-function: cubic-bezier(0.42, 0, 0.58, 1);}#el_yRK17i3KX5_Lig13LCR8{-webkit-animation-name: el_yRK17i3KX5_Lig13LCR8_Animation;animation-name: el_yRK17i3KX5_Lig13LCR8_Animation;-webkit-transform-origin: 50% 50%;transform-origin: 50% 50%;transform-box: fill-box;-webkit-animation-timing-function: cubic-bezier(0.42, 0, 0.58, 1);animation-timing-function: cubic-bezier(0.42, 0, 0.58, 1);}#el_g6YwgMlKoV_DAOIkFuuU{-webkit-animation-name: el_g6YwgMlKoV_DAOIkFuuU_Animation;animation-name: el_g6YwgMlKoV_DAOIkFuuU_Animation;-webkit-transform-origin: 50% 50%;transform-origin: 50% 50%;transform-box: fill-box;-webkit-animation-timing-function: cubic-bezier(0.42, 0, 0.58, 1);animation-timing-function: cubic-bezier(0.42, 0, 0.58, 1);}#el_Ra3Ak9C4Nd_oolo4XXZ3{-webkit-animation-name: el_Ra3Ak9C4Nd_oolo4XXZ3_Animation;animation-name: el_Ra3Ak9C4Nd_oolo4XXZ3_Animation;-webkit-transform-origin: 50% 50%;transform-origin: 50% 50%;transform-box: fill-box;-webkit-animation-timing-function: cubic-bezier(0.42, 0, 0.58, 1);animation-timing-function: cubic-bezier(0.42, 0, 0.58, 1);}#el_hQ1Dx7J0iW_mDOo0e5rs{-webkit-animation-name: el_hQ1Dx7J0iW_mDOo0e5rs_Animation;animation-name: el_hQ1Dx7J0iW_mDOo0e5rs_Animation;-webkit-transform-origin: 50% 50%;transform-origin: 50% 50%;transform-box: fill-box;-webkit-animation-timing-function: cubic-bezier(0.42, 0, 0.58, 1);animation-timing-function: cubic-bezier(0.42, 0, 0.58, 1);}#el_ITWomxAkJF_fTjqLxKxa{-webkit-animation-name: el_ITWomxAkJF_fTjqLxKxa_Animation;animation-name: el_ITWomxAkJF_fTjqLxKxa_Animation;-webkit-transform-origin: 50% 50%;transform-origin: 50% 50%;transform-box: fill-box;-webkit-animation-timing-function: cubic-bezier(0.42, 0, 0.58, 1);animation-timing-function: cubic-bezier(0.42, 0, 0.58, 1);}</style>

<g id="el_gM5GU_qAs9">
	<g id="el_yRK17i3KX5_Lig13LCR8" data-animator-group="true" data-animator-type="2"><path id="el_yRK17i3KX5" d="M398.5,345.7c-6-1.4-11.6-3.6-16.9-6.6c-5.2-3-10-6.6-14.1-10.7c-4.2-4.2-7.9-9-10.9-14.4&#10;&#9;&#9;c-3-5.4-5.3-11.3-6.6-17.6c-1.5-8.5-1.3-16.8,0.6-24.8c0.9-4.1,2.2-8.1,3.8-11.8c1.7-4,4-7.8,6.7-11.2c3.8-4.9,8.4-9.1,13.4-12.6&#10;&#9;&#9;c4.9-3.5,10.3-6.3,16.1-8.3c5.8-2,11.8-3.2,17.8-3.5c1.1-0.1,2.2-0.1,3.3-0.1c5,0,9.9,0.6,14.7,1.8l34.8,8l0.3,5.6&#10;&#9;&#9;c0.2,3.1,0.4,6.3,0.4,9.5c0,2.5-0.2,5-0.3,7.5l-0.4,7.2l-41.4-9.6c-2.9-0.7-5.8-1-8.6-1c-1.9,0-3.7,0.1-5.5,0.4&#10;&#9;&#9;c-4.6,0.7-8.8,2.2-12.5,4.4c-3.7,2.1-6.9,5-9.6,8.5c-2.6,3.4-4.4,7.3-5.4,11.6c-1,4.3-1.1,8.6-0.2,12.7c0.9,4.3,2.6,8.3,5,11.9&#10;&#9;&#9;c2.3,3.6,5.5,6.7,9.3,9.4c3.8,2.6,8.2,4.5,13,5.6l29,6.7c3.3,0.8,6,2.9,7.5,6c1.4,3,1.4,6.3,0,9.3c-2,4.2-4.2,8.4-6.4,12.4&#10;&#9;&#9;l-1.1,2.1L398.5,345.7z"/></g>
	<g id="el_g6YwgMlKoV_DAOIkFuuU" data-animator-group="true" data-animator-type="2"><path id="el_g6YwgMlKoV" d="M266.9,425.7c-2.7-5.5-4.5-11.3-5.5-17.3c-1-5.9-1.2-11.9-0.6-17.8c0.6-5.9,2.1-11.8,4.3-17.5&#10;&#9;&#9;c2.3-5.8,5.5-11.2,9.5-16.2c5.7-6.5,12.3-11.6,19.7-15.2c3.8-1.8,7.7-3.3,11.6-4.4c4.2-1.2,8.6-1.8,12.9-1.8c0,0,0,0,0,0&#10;&#9;&#9;c6.6,0,12.5,0.8,18.2,2.4c5.8,1.6,11.4,4.1,16.6,7.3c5.2,3.2,9.9,7.1,13.9,11.6c4.1,4.5,7.5,9.6,10,15.1l15.9,32.6l-1.7,1.6&#10;&#9;&#9;c-3.5,3.1-7,6.2-10.7,9.1c-1.9,1.5-4.2,2.3-6.6,2.3l0,0c-4.2,0-8.1-2.4-9.9-6.2l-13-26.7c-2.2-4.5-5-8.3-8.4-11.3&#10;&#9;&#9;c-3.5-3.1-7.3-5.5-11.3-7c-3.8-1.4-7.8-2.2-11.9-2.2c-4.9,0.1-9.1,1.1-13.1,3.1c-4,1.9-7.3,4.6-10,7.8c-2.7,3.4-4.8,7.2-6.1,11.3&#10;&#9;&#9;c-1.3,4.1-1.8,8.5-1.5,13.1c0.4,4.6,1.6,9.2,3.8,13.6l12.9,26.5c1.5,3,1.5,6.5,0,9.6c-1.4,3-4.1,5.1-7.2,5.9&#10;&#9;&#9;c-4.5,1-9.1,1.9-13.7,2.7l-2.3,0.4L266.9,425.7z"/></g>
	<g id="el_48OroZXUeQ_UkWcpHbVI" data-animator-group="true" data-animator-type="2"><path id="el_48OroZXUeQ" d="M378.2,207c-3.3,0-6.7-0.3-10.1-0.8c-6.1-0.9-12.2-2.8-17.9-5.6c-7.6-4.1-14.1-9.3-19.2-15.7&#10;&#9;&#9;c-2.6-3.3-5-6.7-6.9-10.3c-2.1-3.8-3.7-7.9-4.7-12.2c-1.4-6-2-12.2-1.7-18.3c0.3-6,1.4-12,3.4-17.8c1.9-5.8,4.7-11.3,8.2-16.2&#10;&#9;&#9;c3.5-5,7.7-9.4,12.4-13.1l28.1-22.8l1.9,1.4c3.8,2.7,7.6,5.6,11.2,8.5c2.5,2,3.9,5.1,3.9,8.3c0,3.3-1.5,6.5-4.1,8.6l-23,18.6&#10;&#9;&#9;c-3.8,3.1-6.9,6.7-9.2,10.8c-2.2,4.1-3.7,8.3-4.3,12.6c-0.6,4.2-0.3,8.5,0.7,12.8c1.1,4.1,3,7.9,5.8,11.4c2.8,3.4,6.1,6.1,9.9,8&#10;&#9;&#9;c3.9,1.9,8.1,3.1,12.4,3.4c0.9,0.1,1.8,0.1,2.6,0.1c3.4,0,7-0.6,10.5-1.6c4.4-1.4,8.6-3.7,12.4-6.8l22.7-18.4&#10;&#9;&#9;c1.9-1.6,4.4-2.5,6.9-2.5c4.2,0,7.9,2.3,9.7,6c2.1,4.2,4,8.4,5.8,12.7l0.9,2.2l-27.8,22.5c-4.7,3.8-10,6.9-15.6,9.2&#10;&#9;&#9;c-5.6,2.3-11.3,3.8-17.2,4.5C383.5,206.9,380.9,207,378.2,207z"/></g>
	<g id="el_SPNbJDIeUe_iGPVfwnoF" data-animator-group="true" data-animator-type="2"><path id="el_SPNbJDIeUe" d="M250.1,145.6c-4.2,0-8.3-0.4-12.3-1.1c-4.3-0.8-8.5-2.1-12.4-4c-5.6-2.6-10.7-6.1-15.3-10.2&#10;&#9;&#9;c-4.5-4-8.4-8.7-11.7-13.8c-3.3-5.2-5.8-10.7-7.4-16.5c-1.7-5.9-2.5-11.9-2.4-17.9V46.3l2.3-0.7c4.5-1.3,9-2.4,13.6-3.4&#10;&#9;&#9;c0.7-0.2,1.5-0.2,2.2-0.2c6,0,10.9,4.9,10.9,11v29.3c0,5,0.9,9.6,2.6,13.9c1.8,4.3,4.2,8.1,7.1,11.2c2.9,3.1,6.4,5.6,10.4,7.5&#10;&#9;&#9;c3.8,1.8,8,2.7,12.5,2.7c4.4,0,8.6-0.9,12.4-2.7c4-1.9,7.5-4.4,10.5-7.5c2.9-3.1,5.3-6.8,7.1-11.2c1.7-4.3,2.5-9,2.5-13.9V52.9&#10;&#9;&#9;c0-6.1,4.9-11,10.9-11c0.8,0,1.5,0.1,2.3,0.2c4.6,1,9.1,2.1,13.6,3.4l2.3,0.7v36c0,6.1-0.9,12.1-2.6,17.9&#10;&#9;&#9;c-1.7,5.7-4.2,11.2-7.3,16.2c-3.1,5-7,9.7-11.6,13.8c-4.6,4.2-9.8,7.7-15.6,10.4C266.5,143.9,258.3,145.6,250.1,145.6z"/></g>
	<g id="el_hQ1Dx7J0iW_mDOo0e5rs" data-animator-group="true" data-animator-type="2"><path id="el_hQ1Dx7J0iW" d="M64.9,351.9c-2.3-4.1-4.4-8.2-6.4-12.4c-1.4-2.9-1.4-6.3,0-9.3c1.5-3,4.2-5.2,7.5-6l29-6.7&#10;&#9;&#9;c4.8-1.1,9.2-3,13-5.7c3.8-2.7,6.9-5.9,9.3-9.4c2.4-3.6,4-7.5,4.9-11.8c0.9-4.1,0.8-8.4-0.2-12.8c-1-4.3-2.8-8.2-5.4-11.5&#10;&#9;&#9;c-2.7-3.4-5.9-6.3-9.7-8.5c-3.7-2.2-7.9-3.7-12.5-4.4c-1.7-0.3-3.5-0.4-5.3-0.4c-2.9,0-5.9,0.3-8.9,1l-41.4,9.6l-0.4-7.1&#10;&#9;&#9;c-0.2-2.5-0.3-5.1-0.3-7.7c0-3.2,0.2-6.3,0.4-9.4l0.4-5.7l35-8.1c4.6-1.1,9.3-1.6,14-1.6c1.3,0,2.7,0,4.1,0.1&#10;&#9;&#9;c6,0.4,11.8,1.6,17.4,3.5c5.6,1.9,11,4.7,16.1,8.2c5.1,3.5,9.7,7.9,13.6,12.9c5.1,7,8.6,14.6,10.4,22.6c0.9,4.1,1.5,8.2,1.7,12.3&#10;&#9;&#9;c0.2,4.4-0.2,8.7-1.1,13c-1.3,6-3.5,11.8-6.5,17.2c-2.9,5.3-6.6,10.2-10.8,14.5c-4.3,4.4-9.2,8.1-14.4,11c-5.3,3-11,5.1-16.9,6.3&#10;&#9;&#9;L66,353.9L64.9,351.9z"/></g>
	<g id="el_Ra3Ak9C4Nd_oolo4XXZ3" data-animator-group="true" data-animator-type="2"><path id="el_Ra3Ak9C4Nd" d="M215,457.7c-4.6-0.8-9.2-1.7-13.7-2.7c-3.2-0.7-5.8-2.9-7.2-5.8c-1.5-3.1-1.4-6.6,0-9.6&#10;&#9;&#9;l12.9-26.5c2.2-4.4,3.4-9,3.7-13.6c0.3-4.6-0.2-9.1-1.4-13.2c-1.3-4.1-3.3-7.9-6.1-11.3c-2.7-3.3-6.1-5.9-10-7.9&#10;&#9;&#9;c-4-1.9-8.1-3-12.3-3c0,0,0,0-0.1,0c-4.8,0-8.8,0.7-12.6,2.2c-4,1.5-7.8,3.8-11.2,6.9c-3.4,3.1-6.2,7-8.4,11.4l-13,26.7&#10;&#9;&#9;c-1.8,3.8-5.7,6.2-9.9,6.2c-2.4,0-4.7-0.8-6.6-2.3c-3.7-2.9-7.2-5.9-10.7-9.1l-1.8-1.6l16-32.8c2.7-5.5,6.1-10.5,10.2-15&#10;&#9;&#9;c4.1-4.4,8.7-8.2,13.6-11.4c5-3.2,10.5-5.6,16.5-7.4c5.6-1.6,11.5-2.5,17.6-2.5l1.1,0c8.5,0.5,16.6,2.5,24,6.1&#10;&#9;&#9;c3.8,1.8,7.3,4,10.6,6.4c3.5,2.6,6.7,5.6,9.4,9c3.8,4.8,7,10.2,9.3,15.9c2.3,5.6,3.8,11.5,4.5,17.5c0.7,6.1,0.5,12.2-0.6,18.1&#10;&#9;&#9;c-1.1,6.1-3,11.8-5.7,17.2l-15.7,32.2L215,457.7z"/></g>
	<g id="el_ITWomxAkJF_fTjqLxKxa" data-animator-group="true" data-animator-type="2"><path id="el_ITWomxAkJF" d="M121.5,207.1c-2.5,0-5.1-0.1-7.6-0.4c-6.1-0.7-12-2.3-17.5-4.6c-5.6-2.4-10.8-5.6-15.4-9.4&#10;&#9;&#9;l-27.7-22.4l0.9-2.2c1.8-4.3,3.7-8.6,5.8-12.8c1.8-3.7,5.5-6,9.7-6c2.5,0,5,0.9,6.9,2.5l22.7,18.4c3.9,3.1,8,5.4,12.4,6.7&#10;&#9;&#9;c3.6,1.1,7.2,1.6,10.7,1.6c0.8,0,1.7,0,2.5-0.1c4.2-0.3,8.4-1.4,12.4-3.4c3.8-1.9,7.1-4.6,9.9-8c2.8-3.4,4.7-7.2,5.7-11.3&#10;&#9;&#9;c1.1-4.3,1.3-8.6,0.7-12.9c-0.5-4.3-2-8.5-4.2-12.5c-2.3-4-5.4-7.6-9.2-10.7l-23-18.6c-2.6-2.1-4.1-5.2-4.1-8.6&#10;&#9;&#9;c0-3.3,1.4-6.3,3.9-8.4c3.6-2.9,7.4-5.8,11.2-8.5l1.9-1.4l28.3,22.9c4.8,3.9,8.9,8.3,12.3,13.3c3.4,5,6.1,10.3,8,15.9&#10;&#9;&#9;c2,5.6,3.1,11.6,3.5,17.7c0.4,6.2-0.2,12.5-1.8,18.6c-2.4,8.3-6.2,15.7-11.4,22.1c-2.6,3.3-5.5,6.2-8.6,8.9&#10;&#9;&#9;c-3.3,2.9-7,5.3-10.9,7.1c-5.6,2.7-11.5,4.5-17.6,5.5C128.6,206.9,125,207.1,121.5,207.1z"/></g>
</g>
<script>(function(){var a=document.querySelector('#el_QqWl-zf4_'),b=a.querySelectorAll('style'),c=function(d){b.forEach(function(f){var g=f.textContent;g&amp;&amp;(f.textContent=g.replace(/transform-box:[^;\r\n]*/gi,'transform-box: '+d))})};c('initial'),window.requestAnimationFrame(function(){return c('fill-box')})})();</script></svg>