<?xml version="1.0" encoding="utf-8"?>
<!-- Generator: Adobe Illustrator 19.0.0, SVG Export Plug-In . SVG Version: 6.00 Build 0)  -->
<svg version="1.1" id="Layer_1" xmlns="http://www.w3.org/2000/svg" xmlns:xlink="http://www.w3.org/1999/xlink" x="0px" y="0px"
	 viewBox="0 0 32 42" style="enable-background:new 0 0 32 42;" xml:space="preserve">
<style type="text/css">
	.st0{fill:#FFFFFF;}
	.st1{fill:#F06925;}
	.st2{fill:#F0EFEF;}
	.st3{fill:#E64425;}
</style>
<g id="XMLID_3854_">
	<path id="XMLID_5636_" class="st0" d="M27.3,29.4l-9.4,9.3c-1.1,1.1-2.8,1.1-3.9,0l-9.4-9.3c-1.9-1.8-2.9-4.3-2.9-7V7.6
		c0-1.5,0.8-2.8,2.2-3.4l0,0c7.7-3.7,16.6-3.7,24.2,0l0,0c1.3,0.6,2.2,2,2.2,3.4v14.8C30.2,25,29.1,27.5,27.3,29.4z"/>
	<path id="XMLID_5635_" class="st1" d="M28.6,21.7V8.7c0-1.3-0.7-2.4-1.9-3h0c-6.8-3.2-14.7-3.2-21.5,0h0c-1.2,0.6-1.9,1.7-1.9,3
		v12.9c0,2.3,0.9,4.5,2.6,6.1l8.4,8.1c1,0.9,2.5,0.9,3.4,0l8.4-8.1C27.6,26.1,28.6,23.9,28.6,21.7z"/>
	<path id="XMLID_5234_" class="st0" d="M25.1,27.2l-7.7,7.5c-0.9,0.9-2.3,0.9-3.2,0l-7.7-7.5c-1.5-1.5-2.4-3.5-2.4-5.7v-12
		C4.3,8.3,5,7.2,6,6.7l0,0c6.2-3,13.5-3,19.7,0l0,0c1.1,0.5,1.8,1.6,1.8,2.8v12C27.5,23.7,26.6,25.7,25.1,27.2z"/>
	<path id="XMLID_3856_" class="st2" d="M25.7,6.7L25.7,6.7c-6.2-3-13.5-3-19.7,0h0C5,7.2,4.3,8.3,4.3,9.5v1.7C4.3,10,5,8.9,6,8.4h0
		c6.2-3,13.5-3,19.7,0h0c1.1,0.5,1.8,1.6,1.8,2.8V9.5C27.5,8.3,26.8,7.2,25.7,6.7z"/>
</g>
<path id="XMLID_6455_" class="st2" d="M18.1,19.2l3.9-3.9c0.6-0.6,0.6-1.6,0-2.2c-0.6-0.6-1.6-0.6-2.2,0l-3.9,3.9L12,13
	c-0.6-0.6-1.6-0.6-2.2,0c-0.6,0.6-0.6,1.6,0,2.2l3.9,3.9l-3.9,3.9c-0.6,0.6-0.6,1.6,0,2.2c0.3,0.3,0.7,0.5,1.1,0.5
	c0.4,0,0.8-0.2,1.1-0.5l3.9-3.9l3.9,3.9c0.3,0.3,0.7,0.5,1.1,0.5c0.4,0,0.8-0.2,1.1-0.5c0.6-0.6,0.6-1.6,0-2.2L18.1,19.2z"/>
<path id="XMLID_6454_" class="st3" d="M18.1,17.8l3.9-3.9c0.6-0.6,0.6-1.6,0-2.2c-0.6-0.6-1.6-0.6-2.2,0l-3.9,3.9L12,11.6
	c-0.6-0.6-1.6-0.6-2.2,0c-0.6,0.6-0.6,1.6,0,2.2l3.9,3.9l-3.9,3.9c-0.6,0.6-0.6,1.6,0,2.2c0.3,0.3,0.7,0.5,1.1,0.5
	c0.4,0,0.8-0.2,1.1-0.5l3.9-3.9l3.9,3.9c0.3,0.3,0.7,0.5,1.1,0.5c0.4,0,0.8-0.2,1.1-0.5c0.6-0.6,0.6-1.6,0-2.2L18.1,17.8z"/>
</svg>
