<?xml version="1.0" encoding="utf-8"?>
<!-- Generator: Adobe Illustrator 19.0.0, SVG Export Plug-In . SVG Version: 6.00 Build 0)  -->
<svg version="1.1" id="Layer_1" xmlns="http://www.w3.org/2000/svg" xmlns:xlink="http://www.w3.org/1999/xlink" x="0px" y="0px"
	 viewBox="0 0 32 42" style="enable-background:new 0 0 32 42;" xml:space="preserve">
<style type="text/css">
	.st0{fill:#FFFFFF;}
	.st1{fill:#D1D2D3;}
	.st2{fill:#F06925;}
	.st3{fill:#DC5726;}
</style>
<g id="XMLID_5251_">
	<path id="XMLID_5252_" class="st0" d="M27.8,29.4l-9.4,9.3c-1.1,1.1-2.8,1.1-3.9,0L5,29.4c-1.9-1.8-2.9-4.3-2.9-7V7.6
		c0-1.5,0.8-2.8,2.2-3.4l0,0c7.7-3.7,16.6-3.7,24.2,0l0,0c1.3,0.6,2.2,2,2.2,3.4v14.8C30.7,25,29.7,27.5,27.8,29.4z"/>
	<path id="XMLID_5253_" class="st1" d="M29.1,21.6V8.7c0-1.3-0.7-2.4-1.9-3h0c-6.8-3.2-14.7-3.2-21.5,0h0c-1.2,0.6-1.9,1.7-1.9,3
		v12.9c0,2.3,0.9,4.5,2.6,6.1l8.4,8.1c1,0.9,2.5,0.9,3.4,0l8.4-8.1C28.2,26.1,29.1,23.9,29.1,21.6z"/>
	<path id="XMLID_5254_" class="st2" d="M25.7,27.2L18,34.7c-0.9,0.9-2.3,0.9-3.2,0l-7.7-7.5c-1.5-1.5-2.4-3.5-2.4-5.7v-12
		c0-1.2,0.7-2.3,1.8-2.8l0,0c6.2-3,13.5-3,19.7,0l0,0C27.4,7.2,28,8.3,28,9.5v12C28,23.7,27.2,25.7,25.7,27.2z"/>
	<path id="XMLID_5255_" class="st3" d="M26.3,6.7L26.3,6.7c-6.2-3-13.5-3-19.7,0h0C5.5,7.2,4.8,8.3,4.8,9.5v1.7
		c0-1.2,0.7-2.3,1.8-2.8h0c6.2-3,13.5-3,19.7,0h0C27.4,8.9,28,10,28,11.2V9.5C28,8.3,27.4,7.2,26.3,6.7z"/>
</g>
<g id="XMLID_5256_">
	<path id="XMLID_5257_" class="st3" d="M23,16.3v-2l-1.8-1l-1-1.8h-2l-1.8-1l-1.8,1h-2l-1,1.8l-1.8,1v2l-1,1.8l1,1.8v2l1.8,1l1,1.8
		h2l1.8,1l1.8-1h2l1-1.8l1.8-1v-2l1-1.8L23,16.3z M20.4,16.5l-4.7,4.7c-0.1,0.1-0.3,0.2-0.5,0.2c-0.2,0-0.4-0.1-0.5-0.2l-2.2-2.2
		c-0.3-0.3-0.3-0.7,0-1l0.6-0.6c0.3-0.3,0.7-0.3,1,0l1.1,1.1l3.6-3.6c0.3-0.3,0.7-0.3,1,0l0.6,0.6C20.7,15.8,20.7,16.3,20.4,16.5z"
		/>
	<polygon id="XMLID_5260_" class="st3" points="16.4,26.6 14.7,25.6 12.6,25.6 12.6,29.6 16.4,28 20.2,29.6 20.2,25.6 18.3,25.6 	
		"/>
</g>
<g id="XMLID_5261_">
	<path id="XMLID_5262_" class="st0" d="M23,15v-2l-1.8-1l-1-1.8h-2l-1.8-1l-1.8,1h-2l-1,1.8l-1.8,1v2l-1,1.8l1,1.8v2l1.8,1l1,1.8h2
		l1.8,1l1.8-1h2l1-1.8l1.8-1v-2l1-1.8L23,15z M20.4,15.2l-4.7,4.7c-0.1,0.1-0.3,0.2-0.5,0.2c-0.2,0-0.4-0.1-0.5-0.2l-2.2-2.2
		c-0.3-0.3-0.3-0.7,0-1l0.6-0.6c0.3-0.3,0.7-0.3,1,0l1.1,1.1l3.6-3.6c0.3-0.3,0.7-0.3,1,0l0.6,0.6C20.7,14.5,20.7,15,20.4,15.2z"/>
	<polygon id="XMLID_5265_" class="st0" points="16.4,25.3 14.7,24.3 12.6,24.3 12.6,28.3 16.4,26.7 20.2,28.3 20.2,24.3 18.3,24.3 	
		"/>
</g>
</svg>
