<?xml version="1.0" encoding="utf-8"?>
<!-- Generator: Adobe Illustrator 19.0.0, SVG Export Plug-In . SVG Version: 6.00 Build 0)  -->
<svg version="1.1" id="Layer_1" xmlns="http://www.w3.org/2000/svg" xmlns:xlink="http://www.w3.org/1999/xlink" x="0px" y="0px"
	 viewBox="0 0 32 42" style="enable-background:new 0 0 32 42;" xml:space="preserve">
<style type="text/css">
	.st0{fill:#FFFFFF;}
	.st1{fill:#D1D2D3;}
	.st2{fill:#1BA685;}
	.st3{fill:#008F88;}
</style>
<g id="XMLID_5246_">
	<path id="XMLID_5247_" class="st0" d="M27.9,29.4l-9.4,9.3c-1.1,1.1-2.8,1.1-3.9,0l-9.4-9.3c-1.9-1.8-2.9-4.3-2.9-7V7.6
		c0-1.5,0.8-2.8,2.2-3.4l0,0c7.7-3.7,16.6-3.7,24.2,0l0,0c1.3,0.6,2.2,2,2.2,3.4v14.8C30.8,25,29.8,27.5,27.9,29.4z"/>
	<path id="XMLID_5248_" class="st1" d="M29.2,21.6V8.7c0-1.3-0.7-2.4-1.9-3h0c-6.8-3.2-14.7-3.2-21.5,0h0c-1.2,0.6-1.9,1.7-1.9,3
		v12.9c0,2.3,0.9,4.5,2.6,6.1l8.4,8.1c1,0.9,2.5,0.9,3.4,0l8.4-8.1C28.3,26.1,29.2,23.9,29.2,21.6z"/>
	<path id="XMLID_5249_" class="st2" d="M25.8,27.2l-7.7,7.5c-0.9,0.9-2.3,0.9-3.2,0l-7.7-7.5c-1.5-1.5-2.4-3.5-2.4-5.7v-12
		c0-1.2,0.7-2.3,1.8-2.8l0,0c6.2-3,13.5-3,19.7,0l0,0c1.1,0.5,1.8,1.6,1.8,2.8v12C28.1,23.7,27.3,25.7,25.8,27.2z"/>
	<path id="XMLID_5250_" class="st3" d="M26.4,6.7L26.4,6.7c-6.2-3-13.5-3-19.7,0h0C5.6,7.2,4.9,8.3,4.9,9.5v1.7
		c0-1.2,0.7-2.3,1.8-2.8h0c6.2-3,13.5-3,19.7,0h0c1.1,0.5,1.8,1.6,1.8,2.8V9.5C28.1,8.3,27.4,7.2,26.4,6.7z"/>
</g>
<g id="XMLID_5266_">
	<rect id="XMLID_5267_" x="10.4" y="16.7" class="st3" width="3.1" height="6.9"/>
	<rect id="XMLID_5268_" x="15.1" y="16.7" class="st3" width="3.1" height="6.9"/>
	<rect id="XMLID_5269_" x="19.8" y="16.7" class="st3" width="3.1" height="6.9"/>
	<polygon id="XMLID_5270_" class="st3" points="16.5,9.8 8.8,13.3 8.8,14.3 8.8,15.5 24.2,15.5 24.2,14.3 24.2,13.3 	"/>
	<rect id="XMLID_5271_" x="8.8" y="24.7" class="st3" width="15.4" height="2.2"/>
</g>
<g id="XMLID_5272_">
	<rect id="XMLID_5273_" x="10.4" y="15.4" class="st0" width="3.1" height="6.9"/>
	<rect id="XMLID_5274_" x="15.1" y="15.4" class="st0" width="3.1" height="6.9"/>
	<rect id="XMLID_5275_" x="19.8" y="15.4" class="st0" width="3.1" height="6.9"/>
	<polygon id="XMLID_5276_" class="st0" points="16.5,8.5 8.8,12 8.8,13 8.8,14.2 24.2,14.2 24.2,13 24.2,12 	"/>
	<rect id="XMLID_5277_" x="8.8" y="23.5" class="st0" width="15.4" height="2.2"/>
</g>
</svg>
